{"glyphs":{"0":{"ha":861,"x_min":0,"x_max":0,"o":"m 431 -19 b 800 479 693 -19 800 207 b 431 979 800 751 693 979 b 61 479 168 979 61 751 b 431 -19 61 207 168 -19 z m 431 92 b 186 479 247 92 186 275 b 431 868 186 683 247 868 b 675 479 614 868 675 683 b 431 92 675 275 614 92 z "},"1":{"ha":481,"x_min":0,"x_max":0,"o":"m 275 960 b 47 753 261 835 215 753 l 47 663 b 247 718 133 663 189 663 l 247 0 l 372 0 l 372 960 z "},"2":{"ha":772,"x_min":0,"x_max":0,"o":"m 196 624 b 414 868 196 756 246 868 b 597 690 561 868 597 771 b 329 413 597 550 508 517 b 43 0 153 310 43 174 l 708 0 l 708 111 l 194 111 l 194 114 b 722 692 254 343 722 363 b 417 979 722 875 581 979 b 71 624 179 979 71 822 z "},"3":{"ha":790,"x_min":0,"x_max":0,"o":"m 175 672 b 403 868 175 767 215 868 b 586 714 533 868 586 792 b 413 557 586 603 511 557 l 315 557 l 315 446 l 418 446 b 621 269 511 446 621 419 b 396 92 621 154 561 92 b 150 325 214 92 150 186 l 25 325 b 406 -19 25 108 161 -19 b 746 269 611 -19 746 81 b 564 507 746 382 700 469 l 564 510 b 711 714 661 549 711 613 b 403 979 711 883 567 979 b 50 672 165 979 50 849 z "},"4":{"ha":786,"x_min":0,"x_max":0,"o":"m 624 0 l 624 225 l 756 225 l 756 336 l 624 336 l 624 960 l 499 960 l 36 336 l 36 225 l 499 225 l 499 0 z m 499 786 l 499 336 l 164 336 z "},"5":{"ha":768,"x_min":0,"x_max":0,"o":"m 417 644 b 189 556 310 644 238 611 l 189 558 l 246 849 l 672 849 l 672 960 l 144 960 l 44 443 l 178 443 b 388 533 226 506 301 533 b 599 328 511 533 599 472 b 374 92 599 174 506 92 b 157 276 224 92 168 183 l 32 276 b 379 -19 38 122 160 -19 b 724 328 572 -19 724 121 b 417 644 724 506 597 644 z "},"6":{"ha":808,"x_min":0,"x_max":0,"o":"m 186 483 l 186 486 b 425 868 189 679 226 868 b 604 717 533 868 592 810 l 729 717 b 425 979 715 857 604 979 b 61 481 186 979 61 800 b 421 -19 61 175 158 -19 b 754 310 629 -19 754 132 b 443 626 754 500 626 626 b 186 483 331 626 233 574 z m 421 92 b 200 299 282 92 200 175 b 432 515 200 428 293 515 b 629 301 546 515 629 439 b 421 92 629 174 553 92 z "},"7":{"ha":713,"x_min":0,"x_max":0,"o":"m 32 960 l 32 849 l 558 849 l 558 846 b 171 0 388 693 171 321 l 303 0 b 697 863 303 310 479 679 l 697 960 z "},"8":{"ha":811,"x_min":0,"x_max":0,"o":"m 46 269 b 406 -19 46 76 200 -19 b 765 269 611 -19 765 76 b 588 508 765 403 678 468 l 588 511 b 717 717 654 547 717 608 b 406 979 717 882 589 979 b 94 717 222 979 94 882 b 224 511 94 608 156 547 l 224 508 b 46 269 132 468 46 403 z m 406 565 b 219 717 294 565 219 610 b 406 868 219 821 294 868 b 592 717 517 868 592 821 b 406 565 592 610 517 565 z m 406 92 b 171 274 263 92 171 154 b 406 454 171 390 263 454 b 640 274 549 454 640 390 b 406 92 640 154 549 92 z "},"9":{"ha":804,"x_min":0,"x_max":0,"o":"m 624 476 l 624 474 b 385 92 621 281 583 92 b 206 243 276 92 218 150 l 81 243 b 385 -19 94 103 206 -19 b 749 479 624 -19 749 160 b 389 979 749 785 651 979 b 56 650 181 979 56 828 b 367 333 56 460 183 333 b 624 476 479 333 576 386 z m 389 868 b 610 661 528 868 610 785 b 378 444 610 532 517 444 b 181 658 264 444 181 521 b 389 868 181 786 257 868 z "},"A":{"ha":899,"x_min":0,"x_max":0,"o":"m 668 249 l 756 0 l 885 0 l 519 993 l 381 993 l 14 0 l 143 0 l 231 249 z m 272 360 l 449 878 l 451 878 l 628 360 z "},"Á":{"ha":899,"x_min":0,"x_max":0,"o":"m 463 1292 l 403 1115 l 493 1115 l 594 1292 z m 668 249 l 756 0 l 885 0 l 519 993 l 381 993 l 14 0 l 143 0 l 231 249 z m 272 360 l 449 878 l 451 878 l 628 360 z "},"Ă":{"ha":899,"x_min":0,"x_max":0,"o":"m 450 1110 b 626 1292 551 1110 621 1172 l 543 1292 b 450 1193 539 1224 510 1193 b 357 1292 390 1193 361 1224 l 274 1292 b 450 1110 278 1168 351 1110 z m 668 249 l 756 0 l 885 0 l 519 993 l 381 993 l 14 0 l 143 0 l 231 249 z m 272 360 l 449 878 l 451 878 l 628 360 z "},"Â":{"ha":899,"x_min":0,"x_max":0,"o":"m 260 1115 l 371 1115 l 449 1232 l 451 1232 l 529 1115 l 640 1115 l 513 1292 l 388 1292 z m 668 249 l 756 0 l 885 0 l 519 993 l 381 993 l 14 0 l 143 0 l 231 249 z m 272 360 l 449 878 l 451 878 l 628 360 z "},"Ä":{"ha":899,"x_min":0,"x_max":0,"o":"m 276 1221 b 346 1153 276 1185 301 1153 b 415 1221 390 1153 415 1185 b 346 1290 415 1258 390 1290 b 276 1221 301 1290 276 1258 z m 485 1221 b 554 1153 485 1185 510 1153 b 624 1221 599 1153 624 1185 b 554 1290 624 1258 599 1290 b 485 1221 510 1290 485 1258 z m 668 249 l 756 0 l 885 0 l 519 993 l 381 993 l 14 0 l 143 0 l 231 249 z m 272 360 l 449 878 l 451 878 l 628 360 z "},"À":{"ha":899,"x_min":0,"x_max":0,"o":"m 438 1292 l 306 1292 l 407 1115 l 497 1115 z m 668 249 l 756 0 l 885 0 l 519 993 l 381 993 l 14 0 l 143 0 l 231 249 z m 272 360 l 449 878 l 451 878 l 628 360 z "},"Ā":{"ha":899,"x_min":0,"x_max":0,"o":"m 271 1257 l 271 1160 l 629 1160 l 629 1257 z m 668 249 l 756 0 l 885 0 l 519 993 l 381 993 l 14 0 l 143 0 l 231 249 z m 272 360 l 449 878 l 451 878 l 628 360 z "},"Ą":{"ha":899,"x_min":0,"x_max":0,"o":"m 764 -119 b 856 0 764 -89 796 -47 l 885 0 l 519 993 l 381 993 l 14 0 l 143 0 l 231 249 l 668 249 l 756 0 l 772 0 b 667 -143 722 -21 667 -78 b 793 -246 667 -204 710 -246 b 883 -232 824 -246 857 -240 l 883 -149 b 815 -162 864 -157 843 -162 b 764 -119 788 -162 764 -147 z m 272 360 l 449 878 l 451 878 l 628 360 z "},"Å":{"ha":899,"x_min":0,"x_max":0,"o":"m 449 1094 b 571 1215 515 1094 571 1143 b 449 1338 571 1286 515 1338 b 328 1215 383 1338 328 1286 b 449 1094 328 1143 383 1094 z m 449 1150 b 385 1215 415 1150 385 1175 b 449 1282 385 1256 415 1282 b 514 1215 482 1282 514 1256 b 449 1150 514 1175 482 1150 z m 668 249 l 756 0 l 885 0 l 519 993 l 381 993 l 14 0 l 143 0 l 231 249 z m 272 360 l 449 878 l 451 878 l 628 360 z "},"Ã":{"ha":899,"x_min":0,"x_max":0,"o":"m 256 1150 l 339 1150 b 371 1197 339 1167 342 1197 b 540 1147 408 1197 472 1147 b 643 1278 592 1147 643 1182 l 560 1278 b 528 1231 560 1258 557 1231 b 358 1281 490 1231 426 1281 b 256 1150 307 1281 256 1243 z m 668 249 l 756 0 l 885 0 l 519 993 l 381 993 l 14 0 l 143 0 l 231 249 z m 272 360 l 449 878 l 451 878 l 628 360 z "},"Æ":{"ha":1371,"x_min":0,"x_max":0,"o":"m 725 111 l 725 458 l 1235 458 l 1235 569 l 725 569 l 725 882 l 1301 882 l 1301 993 l 386 993 l 19 0 l 149 0 l 236 249 l 600 249 l 600 0 l 1318 0 l 1318 111 z m 278 360 l 454 878 l 600 878 l 600 360 z "},"B":{"ha":894,"x_min":0,"x_max":0,"o":"m 818 743 b 493 993 818 897 696 993 l 93 993 l 93 0 l 521 0 b 857 289 726 0 857 106 b 664 535 857 438 768 517 l 664 538 b 818 743 746 565 818 621 z m 218 578 l 218 882 l 526 882 b 693 729 640 882 693 819 b 513 578 693 639 654 578 z m 218 467 l 561 467 b 732 289 665 467 732 396 b 533 111 732 196 693 111 l 218 111 z "},"C":{"ha":985,"x_min":0,"x_max":0,"o":"m 813 665 l 938 665 b 515 1013 914 854 758 1013 b 56 497 243 1013 56 796 b 515 -19 56 197 243 -19 b 938 358 760 -19 915 139 l 813 358 b 515 92 804 233 724 92 b 181 497 279 92 181 296 b 515 901 181 697 279 901 b 813 665 722 901 794 760 z "},"Ć":{"ha":985,"x_min":0,"x_max":0,"o":"m 526 1292 l 467 1115 l 557 1115 l 658 1292 z m 813 665 l 938 665 b 515 1013 914 854 758 1013 b 56 497 243 1013 56 796 b 515 -19 56 197 243 -19 b 938 358 760 -19 915 139 l 813 358 b 515 92 804 233 724 92 b 181 497 279 92 181 296 b 515 901 181 697 279 901 b 813 665 722 901 794 760 z "},"Č":{"ha":985,"x_min":0,"x_max":0,"o":"m 324 1292 l 451 1115 l 576 1115 l 704 1292 l 593 1292 l 515 1175 l 513 1175 l 435 1292 z m 813 665 l 938 665 b 515 1013 914 854 758 1013 b 56 497 243 1013 56 796 b 515 -19 56 197 243 -19 b 938 358 760 -19 915 139 l 813 358 b 515 92 804 233 724 92 b 181 497 279 92 181 296 b 515 901 181 697 279 901 b 813 665 722 901 794 760 z "},"Ç":{"ha":985,"x_min":0,"x_max":0,"o":"m 515 92 b 181 497 279 92 181 296 b 515 901 181 697 279 901 b 813 665 722 901 794 760 l 938 665 b 515 1013 914 854 758 1013 b 56 497 243 1013 56 796 b 475 -18 56 213 225 3 l 403 -112 l 419 -139 b 475 -129 432 -133 460 -129 b 544 -167 524 -129 544 -140 b 468 -218 544 -196 514 -218 b 364 -197 425 -218 397 -210 l 335 -232 b 483 -272 368 -256 426 -272 b 628 -168 556 -272 628 -235 b 493 -85 628 -96 547 -76 l 493 -82 l 544 -18 b 938 358 772 -7 917 147 l 813 358 b 515 92 804 233 724 92 z "},"Ċ":{"ha":985,"x_min":0,"x_max":0,"o":"m 444 1221 b 514 1153 444 1185 469 1153 b 583 1221 558 1153 583 1185 b 514 1290 583 1258 558 1290 b 444 1221 469 1290 444 1258 z m 813 665 l 938 665 b 515 1013 914 854 758 1013 b 56 497 243 1013 56 796 b 515 -19 56 197 243 -19 b 938 358 760 -19 915 139 l 813 358 b 515 92 804 233 724 92 b 181 497 279 92 181 296 b 515 901 181 697 279 901 b 813 665 722 901 794 760 z "},"D":{"ha":950,"x_min":0,"x_max":0,"o":"m 93 0 l 453 0 b 894 496 726 0 894 176 b 453 993 894 815 726 993 l 93 993 z m 218 882 l 453 882 b 769 496 706 882 769 690 b 453 111 769 301 706 111 l 218 111 z "},"Ð":{"ha":961,"x_min":0,"x_max":0,"o":"m 464 993 l 104 993 l 104 563 l 7 563 l 7 465 l 104 465 l 104 0 l 464 0 b 906 496 738 0 906 176 b 464 993 906 815 738 993 z m 464 111 l 229 111 l 229 465 l 546 465 l 546 563 l 229 563 l 229 882 l 464 882 b 781 496 717 882 781 690 b 464 111 781 301 717 111 z "},"Ď":{"ha":950,"x_min":0,"x_max":0,"o":"m 179 1292 l 307 1115 l 432 1115 l 560 1292 l 449 1292 l 371 1175 l 368 1175 l 290 1292 z m 93 0 l 453 0 b 894 496 726 0 894 176 b 453 993 894 815 726 993 l 93 993 z m 218 882 l 453 882 b 769 496 706 882 769 690 b 453 111 769 301 706 111 l 218 111 z "},"Đ":{"ha":961,"x_min":0,"x_max":0,"o":"m 464 993 l 104 993 l 104 563 l 7 563 l 7 465 l 104 465 l 104 0 l 464 0 b 906 496 738 0 906 176 b 464 993 906 815 738 993 z m 464 111 l 229 111 l 229 465 l 546 465 l 546 563 l 229 563 l 229 882 l 464 882 b 781 496 717 882 781 690 b 464 111 781 301 717 111 z "},"E":{"ha":864,"x_min":0,"x_max":0,"o":"m 218 569 l 218 882 l 794 882 l 794 993 l 93 993 l 93 0 l 811 0 l 811 111 l 218 111 l 218 458 l 728 458 l 728 569 z "},"É":{"ha":864,"x_min":0,"x_max":0,"o":"m 465 1292 l 406 1115 l 496 1115 l 597 1292 z m 218 569 l 218 882 l 794 882 l 794 993 l 93 993 l 93 0 l 811 0 l 811 111 l 218 111 l 218 458 l 728 458 l 728 569 z "},"Ě":{"ha":864,"x_min":0,"x_max":0,"o":"m 263 1292 l 390 1115 l 515 1115 l 643 1292 l 532 1292 l 454 1175 l 451 1175 l 374 1292 z m 218 569 l 218 882 l 794 882 l 794 993 l 93 993 l 93 0 l 811 0 l 811 111 l 218 111 l 218 458 l 728 458 l 728 569 z "},"Ê":{"ha":864,"x_min":0,"x_max":0,"o":"m 263 1115 l 374 1115 l 451 1232 l 454 1232 l 532 1115 l 643 1115 l 515 1292 l 390 1292 z m 218 569 l 218 882 l 794 882 l 794 993 l 93 993 l 93 0 l 811 0 l 811 111 l 218 111 l 218 458 l 728 458 l 728 569 z "},"Ë":{"ha":864,"x_min":0,"x_max":0,"o":"m 279 1221 b 349 1153 279 1185 304 1153 b 418 1221 393 1153 418 1185 b 349 1290 418 1258 393 1290 b 279 1221 304 1290 279 1258 z m 488 1221 b 557 1153 488 1185 513 1153 b 626 1221 601 1153 626 1185 b 557 1290 626 1258 601 1290 b 488 1221 513 1290 488 1258 z m 218 569 l 218 882 l 794 882 l 794 993 l 93 993 l 93 0 l 811 0 l 811 111 l 218 111 l 218 458 l 728 458 l 728 569 z "},"Ė":{"ha":864,"x_min":0,"x_max":0,"o":"m 383 1221 b 453 1153 383 1185 408 1153 b 522 1221 497 1153 522 1185 b 453 1290 522 1258 497 1290 b 383 1221 408 1290 383 1258 z m 218 569 l 218 882 l 794 882 l 794 993 l 93 993 l 93 0 l 811 0 l 811 111 l 218 111 l 218 458 l 728 458 l 728 569 z "},"È":{"ha":864,"x_min":0,"x_max":0,"o":"m 440 1292 l 308 1292 l 410 1115 l 500 1115 z m 218 569 l 218 882 l 794 882 l 794 993 l 93 993 l 93 0 l 811 0 l 811 111 l 218 111 l 218 458 l 728 458 l 728 569 z "},"Ē":{"ha":864,"x_min":0,"x_max":0,"o":"m 274 1257 l 274 1160 l 632 1160 l 632 1257 z m 218 569 l 218 882 l 794 882 l 794 993 l 93 993 l 93 0 l 811 0 l 811 111 l 218 111 l 218 458 l 728 458 l 728 569 z "},"Ę":{"ha":864,"x_min":0,"x_max":0,"o":"m 757 -162 b 706 -119 729 -162 706 -147 b 797 0 706 -89 738 -47 l 811 0 l 811 111 l 218 111 l 218 458 l 728 458 l 728 569 l 218 569 l 218 882 l 794 882 l 794 993 l 93 993 l 93 0 l 714 0 b 608 -143 664 -21 608 -78 b 735 -246 608 -204 651 -246 b 825 -232 765 -246 799 -240 l 825 -149 b 757 -162 806 -157 785 -162 z "},"F":{"ha":803,"x_min":0,"x_max":0,"o":"m 218 560 l 218 882 l 767 882 l 767 993 l 93 993 l 93 0 l 218 0 l 218 449 l 661 449 l 661 560 z "},"G":{"ha":1031,"x_min":0,"x_max":0,"o":"m 810 693 l 935 693 b 517 1013 900 882 768 1013 b 56 497 242 1013 56 796 b 503 -19 56 197 214 -19 b 824 140 656 -19 749 36 l 826 140 l 868 0 l 951 0 l 951 517 l 503 517 l 503 406 l 826 406 b 503 92 826 219 681 92 b 181 497 253 92 181 310 b 517 901 181 683 281 901 b 810 693 667 901 781 835 z "},"Ğ":{"ha":1031,"x_min":0,"x_max":0,"o":"m 510 1110 b 686 1292 611 1110 681 1172 l 603 1292 b 510 1193 599 1224 569 1193 b 417 1292 450 1193 421 1224 l 333 1292 b 510 1110 338 1168 411 1110 z m 810 693 l 935 693 b 517 1013 900 882 768 1013 b 56 497 242 1013 56 796 b 503 -19 56 197 214 -19 b 824 140 656 -19 749 36 l 826 140 l 868 0 l 951 0 l 951 517 l 503 517 l 503 406 l 826 406 b 503 92 826 219 681 92 b 181 497 253 92 181 310 b 517 901 181 683 281 901 b 810 693 667 901 781 835 z "},"Ģ":{"ha":1031,"x_min":0,"x_max":0,"o":"m 810 693 l 935 693 b 517 1013 900 882 768 1013 b 56 497 242 1013 56 796 b 503 -19 56 197 214 -19 b 824 140 656 -19 749 36 l 826 140 l 868 0 l 951 0 l 951 517 l 503 517 l 503 406 l 826 406 b 503 92 826 219 681 92 b 181 497 253 92 181 310 b 517 901 181 683 281 901 b 810 693 667 901 781 835 z m 533 -225 b 464 -310 533 -276 507 -300 l 464 -365 b 603 -200 572 -346 603 -260 b 522 -82 603 -131 576 -82 b 450 -158 483 -82 450 -112 b 533 -225 450 -219 490 -239 z "},"Ġ":{"ha":1031,"x_min":0,"x_max":0,"o":"m 440 1221 b 510 1153 440 1185 465 1153 b 579 1221 554 1153 579 1185 b 510 1290 579 1258 554 1290 b 440 1221 465 1290 440 1258 z m 810 693 l 935 693 b 517 1013 900 882 768 1013 b 56 497 242 1013 56 796 b 503 -19 56 197 214 -19 b 824 140 656 -19 749 36 l 826 140 l 868 0 l 951 0 l 951 517 l 503 517 l 503 406 l 826 406 b 503 92 826 219 681 92 b 181 497 253 92 181 310 b 517 901 181 683 281 901 b 810 693 667 901 781 835 z "},"H":{"ha":967,"x_min":0,"x_max":0,"o":"m 93 993 l 93 0 l 218 0 l 218 460 l 749 460 l 749 0 l 874 0 l 874 993 l 749 993 l 749 571 l 218 571 l 218 993 z "},"Ħ":{"ha":967,"x_min":0,"x_max":0,"o":"m 971 840 l 874 840 l 874 993 l 749 993 l 749 840 l 218 840 l 218 993 l 93 993 l 93 840 l -4 840 l -4 743 l 93 743 l 93 0 l 218 0 l 218 460 l 749 460 l 749 0 l 874 0 l 874 743 l 971 743 z m 749 571 l 218 571 l 218 743 l 749 743 z "},"I":{"ha":317,"x_min":0,"x_max":0,"o":"m 96 993 l 96 0 l 221 0 l 221 993 z "},"Í":{"ha":317,"x_min":0,"x_max":0,"o":"m 171 1292 l 111 1115 l 201 1115 l 303 1292 z m 96 993 l 96 0 l 221 0 l 221 993 z "},"Î":{"ha":317,"x_min":0,"x_max":0,"o":"m -32 1115 l 79 1115 l 157 1232 l 160 1232 l 238 1115 l 349 1115 l 221 1292 l 96 1292 z m 96 993 l 96 0 l 221 0 l 221 993 z "},"Ï":{"ha":317,"x_min":0,"x_max":0,"o":"m -15 1221 b 54 1153 -15 1185 10 1153 b 124 1221 99 1153 124 1185 b 54 1290 124 1258 99 1290 b -15 1221 10 1290 -15 1258 z m 193 1221 b 263 1153 193 1185 218 1153 b 332 1221 307 1153 332 1185 b 263 1290 332 1258 307 1290 b 193 1221 218 1290 193 1258 z m 96 993 l 96 0 l 221 0 l 221 993 z "},"İ":{"ha":317,"x_min":0,"x_max":0,"o":"m 89 1221 b 158 1153 89 1185 114 1153 b 228 1221 203 1153 228 1185 b 158 1290 228 1258 203 1290 b 89 1221 114 1290 89 1258 z m 96 993 l 96 0 l 221 0 l 221 993 z "},"Ì":{"ha":317,"x_min":0,"x_max":0,"o":"m 146 1292 l 14 1292 l 115 1115 l 206 1115 z m 96 993 l 96 0 l 221 0 l 221 993 z "},"Ī":{"ha":317,"x_min":0,"x_max":0,"o":"m -21 1257 l -21 1160 l 338 1160 l 338 1257 z m 96 993 l 96 0 l 221 0 l 221 993 z "},"Į":{"ha":317,"x_min":0,"x_max":0,"o":"m 181 -162 b 129 -119 153 -162 129 -147 b 221 0 129 -89 161 -47 l 221 993 l 96 993 l 96 0 l 138 0 b 32 -143 88 -21 32 -78 b 158 -246 32 -204 75 -246 b 249 -232 189 -246 222 -240 l 249 -149 b 181 -162 229 -157 208 -162 z "},"J":{"ha":690,"x_min":0,"x_max":0,"o":"m 610 303 l 610 993 l 485 993 l 485 303 b 319 92 485 183 464 92 b 156 303 175 92 156 183 l 156 331 l 31 331 l 31 303 b 319 -19 31 142 96 -19 b 610 303 543 -19 610 142 z "},"K":{"ha":894,"x_min":0,"x_max":0,"o":"m 93 993 l 93 0 l 218 0 l 218 307 l 396 494 l 751 0 l 897 0 l 479 581 l 869 993 l 717 993 l 218 461 l 218 993 z "},"Ķ":{"ha":894,"x_min":0,"x_max":0,"o":"m 93 993 l 93 0 l 218 0 l 218 307 l 396 494 l 751 0 l 897 0 l 479 581 l 869 993 l 717 993 l 218 461 l 218 993 z m 503 -225 b 433 -310 503 -276 476 -300 l 433 -365 b 572 -200 542 -346 572 -260 b 492 -82 572 -131 546 -82 b 419 -158 453 -82 419 -112 b 503 -225 419 -219 460 -239 z "},"L":{"ha":769,"x_min":0,"x_max":0,"o":"m 93 993 l 93 0 l 739 0 l 739 111 l 218 111 l 218 993 z "},"Ĺ":{"ha":769,"x_min":0,"x_max":0,"o":"m 168 1292 l 108 1115 l 199 1115 l 300 1292 z m 93 993 l 93 0 l 739 0 l 739 111 l 218 111 l 218 993 z "},"Ľ":{"ha":769,"x_min":0,"x_max":0,"o":"m 482 844 b 390 764 482 807 431 771 l 390 714 b 546 883 504 726 546 819 b 460 1000 546 951 517 1000 b 379 921 407 1000 379 967 b 482 844 379 867 421 831 z m 93 993 l 93 0 l 739 0 l 739 111 l 218 111 l 218 993 z "},"Ļ":{"ha":769,"x_min":0,"x_max":0,"o":"m 93 993 l 93 0 l 739 0 l 739 111 l 218 111 l 218 993 z m 424 -225 b 354 -310 424 -276 397 -300 l 354 -365 b 493 -200 463 -346 493 -260 b 413 -82 493 -131 467 -82 b 340 -158 374 -82 340 -112 b 424 -225 340 -219 381 -239 z "},"Ł":{"ha":767,"x_min":0,"x_max":0,"o":"m 215 111 l 215 428 l 451 601 l 451 708 l 215 535 l 215 993 l 90 993 l 90 443 l -7 372 l -7 265 l 90 336 l 90 0 l 736 0 l 736 111 z "},"M":{"ha":1153,"x_min":0,"x_max":0,"o":"m 93 0 l 218 0 l 218 817 l 221 817 l 521 0 l 632 0 l 932 817 l 935 817 l 935 0 l 1060 0 l 1060 993 l 889 993 l 578 168 l 575 168 l 264 993 l 93 993 z "},"N":{"ha":963,"x_min":0,"x_max":0,"o":"m 93 0 l 218 0 l 218 815 l 221 815 l 717 0 l 869 0 l 869 993 l 744 993 l 744 175 l 742 175 l 246 993 l 93 993 z "},"Ń":{"ha":963,"x_min":0,"x_max":0,"o":"m 494 1292 l 435 1115 l 525 1115 l 626 1292 z m 93 0 l 218 0 l 218 815 l 221 815 l 717 0 l 869 0 l 869 993 l 744 993 l 744 175 l 742 175 l 246 993 l 93 993 z "},"Ň":{"ha":963,"x_min":0,"x_max":0,"o":"m 292 1292 l 419 1115 l 544 1115 l 672 1292 l 561 1292 l 483 1175 l 481 1175 l 403 1292 z m 93 0 l 218 0 l 218 815 l 221 815 l 717 0 l 869 0 l 869 993 l 744 993 l 744 175 l 742 175 l 246 993 l 93 993 z "},"Ņ":{"ha":963,"x_min":0,"x_max":0,"o":"m 93 0 l 218 0 l 218 815 l 221 815 l 717 0 l 869 0 l 869 993 l 744 993 l 744 175 l 742 175 l 246 993 l 93 993 z m 489 -225 b 419 -310 489 -276 463 -300 l 419 -365 b 558 -200 528 -346 558 -260 b 478 -82 558 -131 532 -82 b 406 -158 439 -82 406 -112 b 489 -225 406 -219 446 -239 z "},"Ŋ":{"ha":963,"x_min":0,"x_max":0,"o":"m 93 0 l 218 0 l 218 815 l 221 815 l 733 -26 b 546 -142 732 -128 654 -154 l 546 -239 b 624 -247 565 -244 590 -247 b 869 0 764 -247 869 -179 l 869 993 l 744 993 l 744 175 l 742 175 l 246 993 l 93 993 z "},"Ñ":{"ha":963,"x_min":0,"x_max":0,"o":"m 288 1150 l 371 1150 b 403 1197 371 1167 374 1197 b 572 1147 440 1197 504 1147 b 675 1278 624 1147 675 1182 l 592 1278 b 560 1231 592 1258 589 1231 b 390 1281 522 1231 458 1281 b 288 1150 339 1281 288 1243 z m 93 0 l 218 0 l 218 815 l 221 815 l 717 0 l 869 0 l 869 993 l 744 993 l 744 175 l 742 175 l 246 993 l 93 993 z "},"O":{"ha":1083,"x_min":0,"x_max":0,"o":"m 542 -19 b 1028 497 833 -19 1028 199 b 542 1013 1028 796 833 1013 b 56 497 250 1013 56 796 b 542 -19 56 199 250 -19 z m 542 92 b 181 497 292 92 181 283 b 542 901 181 711 292 901 b 903 497 792 901 903 711 b 542 92 903 283 792 92 z "},"Ó":{"ha":1083,"x_min":0,"x_max":0,"o":"m 554 1292 l 494 1115 l 585 1115 l 686 1292 z m 542 -19 b 1028 497 833 -19 1028 199 b 542 1013 1028 796 833 1013 b 56 497 250 1013 56 796 b 542 -19 56 199 250 -19 z m 542 92 b 181 497 292 92 181 283 b 542 901 181 711 292 901 b 903 497 792 901 903 711 b 542 92 903 283 792 92 z "},"Ô":{"ha":1083,"x_min":0,"x_max":0,"o":"m 351 1115 l 463 1115 l 540 1232 l 543 1232 l 621 1115 l 732 1115 l 604 1292 l 479 1292 z m 542 -19 b 1028 497 833 -19 1028 199 b 542 1013 1028 796 833 1013 b 56 497 250 1013 56 796 b 542 -19 56 199 250 -19 z m 542 92 b 181 497 292 92 181 283 b 542 901 181 711 292 901 b 903 497 792 901 903 711 b 542 92 903 283 792 92 z "},"Ö":{"ha":1083,"x_min":0,"x_max":0,"o":"m 368 1221 b 438 1153 368 1185 393 1153 b 507 1221 482 1153 507 1185 b 438 1290 507 1258 482 1290 b 368 1221 393 1290 368 1258 z m 576 1221 b 646 1153 576 1185 601 1153 b 715 1221 690 1153 715 1185 b 646 1290 715 1258 690 1290 b 576 1221 601 1290 576 1258 z m 542 -19 b 1028 497 833 -19 1028 199 b 542 1013 1028 796 833 1013 b 56 497 250 1013 56 796 b 542 -19 56 199 250 -19 z m 542 92 b 181 497 292 92 181 283 b 542 901 181 711 292 901 b 903 497 792 901 903 711 b 542 92 903 283 792 92 z "},"Ò":{"ha":1083,"x_min":0,"x_max":0,"o":"m 529 1292 l 397 1292 l 499 1115 l 589 1115 z m 542 -19 b 1028 497 833 -19 1028 199 b 542 1013 1028 796 833 1013 b 56 497 250 1013 56 796 b 542 -19 56 199 250 -19 z m 542 92 b 181 497 292 92 181 283 b 542 901 181 711 292 901 b 903 497 792 901 903 711 b 542 92 903 283 792 92 z "},"Ő":{"ha":1083,"x_min":0,"x_max":0,"o":"m 449 1292 l 389 1115 l 479 1115 l 581 1292 z m 646 1292 l 586 1115 l 676 1115 l 778 1292 z m 542 -19 b 1028 497 833 -19 1028 199 b 542 1013 1028 796 833 1013 b 56 497 250 1013 56 796 b 542 -19 56 199 250 -19 z m 542 92 b 181 497 292 92 181 283 b 542 901 181 711 292 901 b 903 497 792 901 903 711 b 542 92 903 283 792 92 z "},"Ō":{"ha":1083,"x_min":0,"x_max":0,"o":"m 363 1257 l 363 1160 l 721 1160 l 721 1257 z m 542 -19 b 1028 497 833 -19 1028 199 b 542 1013 1028 796 833 1013 b 56 497 250 1013 56 796 b 542 -19 56 199 250 -19 z m 542 92 b 181 497 292 92 181 283 b 542 901 181 711 292 901 b 903 497 792 901 903 711 b 542 92 903 283 792 92 z "},"Ø":{"ha":1085,"x_min":0,"x_max":0,"o":"m 1032 940 l 982 988 l 878 883 b 542 1013 794 965 679 1013 b 56 497 250 1013 56 796 b 160 163 56 367 93 251 l 53 56 l 100 7 l 204 111 b 542 -19 289 29 404 -19 b 1028 497 833 -19 1028 199 b 924 832 1028 628 990 743 z m 181 497 b 542 901 181 711 292 901 b 797 801 654 901 738 863 l 244 247 b 181 497 201 318 181 406 z m 903 497 b 542 92 903 283 792 92 b 286 193 429 92 344 131 l 839 747 b 903 497 882 676 903 589 z "},"Õ":{"ha":1083,"x_min":0,"x_max":0,"o":"m 347 1150 l 431 1150 b 463 1197 431 1167 433 1197 b 632 1147 500 1197 564 1147 b 735 1278 683 1147 735 1182 l 651 1278 b 619 1231 651 1258 649 1231 b 450 1281 582 1231 518 1281 b 347 1150 399 1281 347 1243 z m 542 -19 b 1028 497 833 -19 1028 199 b 542 1013 1028 796 833 1013 b 56 497 250 1013 56 796 b 542 -19 56 199 250 -19 z m 542 92 b 181 497 292 92 181 283 b 542 901 181 711 292 901 b 903 497 792 901 903 711 b 542 92 903 283 792 92 z "},"Œ":{"ha":1489,"x_min":0,"x_max":0,"o":"m 843 111 l 843 458 l 1353 458 l 1353 569 l 843 569 l 843 882 l 1419 882 l 1419 993 l 718 993 l 718 903 b 458 1013 651 981 561 1013 b 56 497 222 1013 56 796 b 458 -19 56 199 222 -19 b 718 92 561 -19 651 13 l 718 0 l 1436 0 l 1436 111 z m 486 92 b 181 497 264 92 181 283 b 486 901 181 711 264 901 b 718 758 579 901 665 857 l 718 235 b 486 92 665 136 579 92 z "},"P":{"ha":838,"x_min":0,"x_max":0,"o":"m 93 0 l 218 0 l 218 415 l 488 415 b 810 704 669 415 810 496 b 488 993 810 913 669 993 l 93 993 z m 218 882 l 501 882 b 685 704 625 882 685 825 b 501 526 685 583 625 526 l 218 526 z "},"Þ":{"ha":833,"x_min":0,"x_max":0,"o":"m 93 0 l 218 0 l 218 249 l 488 249 b 810 538 669 249 810 329 b 488 826 810 746 669 826 l 218 826 l 218 993 l 93 993 z m 218 715 l 501 715 b 685 538 625 715 685 658 b 501 360 685 417 625 360 l 218 360 z "},"Q":{"ha":1083,"x_min":0,"x_max":0,"o":"m 1028 497 b 542 1013 1028 796 833 1013 b 56 497 250 1013 56 796 b 542 -19 56 199 250 -19 b 829 68 653 -19 751 13 l 947 -50 l 1026 29 l 910 146 b 1028 497 985 236 1028 357 z m 542 92 b 181 497 292 92 181 283 b 542 901 181 711 292 901 b 903 497 792 901 903 711 b 826 229 903 397 878 301 l 689 367 l 610 288 l 747 150 b 542 92 693 114 625 92 z "},"R":{"ha":879,"x_min":0,"x_max":0,"o":"m 93 0 l 218 0 l 218 401 l 503 401 b 703 0 754 401 660 42 l 838 0 l 838 8 b 646 458 786 25 867 415 l 646 461 b 824 711 756 489 824 568 b 496 993 824 888 692 993 l 93 993 z m 218 882 l 467 882 b 699 697 569 882 699 869 b 467 513 699 525 569 513 l 218 513 z "},"Ŕ":{"ha":879,"x_min":0,"x_max":0,"o":"m 436 1292 l 376 1115 l 467 1115 l 568 1292 z m 93 0 l 218 0 l 218 401 l 503 401 b 703 0 754 401 660 42 l 838 0 l 838 8 b 646 458 786 25 867 415 l 646 461 b 824 711 756 489 824 568 b 496 993 824 888 692 993 l 93 993 z m 218 882 l 467 882 b 699 697 569 882 699 869 b 467 513 699 525 569 513 l 218 513 z "},"Ř":{"ha":879,"x_min":0,"x_max":0,"o":"m 233 1292 l 361 1115 l 486 1115 l 614 1292 l 503 1292 l 425 1175 l 422 1175 l 344 1292 z m 93 0 l 218 0 l 218 401 l 503 401 b 703 0 754 401 660 42 l 838 0 l 838 8 b 646 458 786 25 867 415 l 646 461 b 824 711 756 489 824 568 b 496 993 824 888 692 993 l 93 993 z m 218 882 l 467 882 b 699 697 569 882 699 869 b 467 513 699 525 569 513 l 218 513 z "},"Ŗ":{"ha":879,"x_min":0,"x_max":0,"o":"m 93 0 l 218 0 l 218 401 l 503 401 b 703 0 754 401 660 42 l 838 0 l 838 8 b 646 458 786 25 867 415 l 646 461 b 824 711 756 489 824 568 b 496 993 824 888 692 993 l 93 993 z m 218 882 l 467 882 b 699 697 569 882 699 869 b 467 513 699 525 569 513 l 218 513 z m 458 -225 b 389 -310 458 -276 432 -300 l 389 -365 b 528 -200 497 -346 528 -260 b 447 -82 528 -131 501 -82 b 375 -158 408 -82 375 -112 b 458 -225 375 -219 415 -239 z "},"S":{"ha":869,"x_min":0,"x_max":0,"o":"m 450 579 b 197 765 304 615 197 633 b 413 901 197 847 272 901 b 663 699 569 901 644 832 l 788 699 b 413 1013 771 904 624 1013 b 72 751 193 1013 72 908 b 399 472 72 558 250 507 b 694 260 621 421 694 396 b 461 92 694 171 633 92 b 156 333 253 92 169 197 l 31 333 b 461 -19 44 106 226 -19 b 819 260 713 -19 819 115 b 450 579 819 486 674 524 z "},"Ś":{"ha":869,"x_min":0,"x_max":0,"o":"m 431 1292 l 371 1115 l 461 1115 l 563 1292 z m 450 579 b 197 765 304 615 197 633 b 413 901 197 847 272 901 b 663 699 569 901 644 832 l 788 699 b 413 1013 771 904 624 1013 b 72 751 193 1013 72 908 b 399 472 72 558 250 507 b 694 260 621 421 694 396 b 461 92 694 171 633 92 b 156 333 253 92 169 197 l 31 333 b 461 -19 44 106 226 -19 b 819 260 713 -19 819 115 b 450 579 819 486 674 524 z "},"Š":{"ha":869,"x_min":0,"x_max":0,"o":"m 228 1292 l 356 1115 l 481 1115 l 608 1292 l 497 1292 l 419 1175 l 417 1175 l 339 1292 z m 450 579 b 197 765 304 615 197 633 b 413 901 197 847 272 901 b 663 699 569 901 644 832 l 788 699 b 413 1013 771 904 624 1013 b 72 751 193 1013 72 908 b 399 472 72 558 250 507 b 694 260 621 421 694 396 b 461 92 694 171 633 92 b 156 333 253 92 169 197 l 31 333 b 461 -19 44 106 226 -19 b 819 260 713 -19 819 115 b 450 579 819 486 674 524 z "},"Ş":{"ha":869,"x_min":0,"x_max":0,"o":"m 511 -18 b 819 260 726 0 819 125 b 450 579 819 486 674 524 b 197 765 304 615 197 633 b 413 901 197 847 272 901 b 663 699 569 901 644 832 l 788 699 b 413 1013 771 904 624 1013 b 72 751 193 1013 72 908 b 399 472 72 558 250 507 b 694 260 621 421 694 396 b 461 92 694 171 633 92 b 156 333 253 92 169 197 l 31 333 b 442 -19 44 113 217 -12 l 369 -112 l 386 -139 b 442 -129 399 -133 426 -129 b 511 -167 490 -129 511 -140 b 435 -218 511 -196 481 -218 b 331 -197 392 -218 364 -210 l 301 -232 b 450 -272 335 -256 393 -272 b 594 -168 522 -272 594 -235 b 460 -85 594 -96 514 -76 l 460 -82 z "},"Ș":{"ha":869,"x_min":0,"x_max":0,"o":"m 450 579 b 197 765 304 615 197 633 b 413 901 197 847 272 901 b 663 699 569 901 644 832 l 788 699 b 413 1013 771 904 624 1013 b 72 751 193 1013 72 908 b 399 472 72 558 250 507 b 694 260 621 421 694 396 b 461 92 694 171 633 92 b 156 333 253 92 169 197 l 31 333 b 461 -19 44 106 226 -19 b 819 260 713 -19 819 115 b 450 579 819 486 674 524 z m 488 -225 b 418 -310 488 -276 461 -300 l 418 -365 b 557 -200 526 -346 557 -260 b 476 -82 557 -131 531 -82 b 404 -158 438 -82 404 -112 b 488 -225 404 -219 444 -239 z "},"T":{"ha":847,"x_min":0,"x_max":0,"o":"m 361 0 l 486 0 l 486 882 l 817 882 l 817 993 l 31 993 l 31 882 l 361 882 z "},"Ŧ":{"ha":847,"x_min":0,"x_max":0,"o":"m 817 882 l 817 993 l 31 993 l 31 882 l 361 882 l 361 563 l 140 563 l 140 465 l 361 465 l 361 0 l 486 0 l 486 465 l 707 465 l 707 563 l 486 563 l 486 882 z "},"Ť":{"ha":847,"x_min":0,"x_max":0,"o":"m 233 1292 l 361 1115 l 486 1115 l 614 1292 l 503 1292 l 425 1175 l 422 1175 l 344 1292 z m 361 0 l 486 0 l 486 882 l 817 882 l 817 993 l 31 993 l 31 882 l 361 882 z "},"Ţ":{"ha":847,"x_min":0,"x_max":0,"o":"m 461 0 l 486 0 l 486 882 l 817 882 l 817 993 l 31 993 l 31 882 l 361 882 l 361 0 l 392 0 l 313 -103 l 329 -129 b 385 -119 342 -124 369 -119 b 454 -157 433 -119 454 -131 b 378 -208 454 -186 424 -208 b 274 -187 335 -208 307 -200 l 244 -222 b 393 -262 278 -246 336 -262 b 538 -158 465 -262 538 -225 b 403 -75 538 -86 457 -67 l 403 -72 z "},"Ț":{"ha":847,"x_min":0,"x_max":0,"o":"m 361 0 l 486 0 l 486 882 l 817 882 l 817 993 l 31 993 l 31 882 l 361 882 z m 431 -215 b 361 -300 431 -267 404 -290 l 361 -356 b 500 -190 469 -336 500 -250 b 419 -72 500 -121 474 -72 b 347 -149 381 -72 347 -103 b 431 -215 347 -210 388 -229 z "},"U":{"ha":914,"x_min":0,"x_max":0,"o":"m 838 331 l 838 993 l 713 993 l 713 331 b 457 92 713 169 629 92 b 201 331 285 92 201 169 l 201 993 l 76 993 l 76 331 b 457 -19 76 128 192 -19 b 838 331 722 -19 838 128 z "},"Ú":{"ha":914,"x_min":0,"x_max":0,"o":"m 469 1292 l 410 1115 l 500 1115 l 601 1292 z m 838 331 l 838 993 l 713 993 l 713 331 b 457 92 713 169 629 92 b 201 331 285 92 201 169 l 201 993 l 76 993 l 76 331 b 457 -19 76 128 192 -19 b 838 331 722 -19 838 128 z "},"Û":{"ha":914,"x_min":0,"x_max":0,"o":"m 267 1115 l 378 1115 l 456 1232 l 458 1232 l 536 1115 l 647 1115 l 519 1292 l 394 1292 z m 838 331 l 838 993 l 713 993 l 713 331 b 457 92 713 169 629 92 b 201 331 285 92 201 169 l 201 993 l 76 993 l 76 331 b 457 -19 76 128 192 -19 b 838 331 722 -19 838 128 z "},"Ü":{"ha":914,"x_min":0,"x_max":0,"o":"m 283 1221 b 353 1153 283 1185 308 1153 b 422 1221 397 1153 422 1185 b 353 1290 422 1258 397 1290 b 283 1221 308 1290 283 1258 z m 492 1221 b 561 1153 492 1185 517 1153 b 631 1221 606 1153 631 1185 b 561 1290 631 1258 606 1290 b 492 1221 517 1290 492 1258 z m 838 331 l 838 993 l 713 993 l 713 331 b 457 92 713 169 629 92 b 201 331 285 92 201 169 l 201 993 l 76 993 l 76 331 b 457 -19 76 128 192 -19 b 838 331 722 -19 838 128 z "},"Ù":{"ha":914,"x_min":0,"x_max":0,"o":"m 444 1292 l 313 1292 l 414 1115 l 504 1115 z m 838 331 l 838 993 l 713 993 l 713 331 b 457 92 713 169 629 92 b 201 331 285 92 201 169 l 201 993 l 76 993 l 76 331 b 457 -19 76 128 192 -19 b 838 331 722 -19 838 128 z "},"Ű":{"ha":914,"x_min":0,"x_max":0,"o":"m 364 1292 l 304 1115 l 394 1115 l 496 1292 z m 561 1292 l 501 1115 l 592 1115 l 693 1292 z m 838 331 l 838 993 l 713 993 l 713 331 b 457 92 713 169 629 92 b 201 331 285 92 201 169 l 201 993 l 76 993 l 76 331 b 457 -19 76 128 192 -19 b 838 331 722 -19 838 128 z "},"Ū":{"ha":914,"x_min":0,"x_max":0,"o":"m 278 1257 l 278 1160 l 636 1160 l 636 1257 z m 838 331 l 838 993 l 713 993 l 713 331 b 457 92 713 169 629 92 b 201 331 285 92 201 169 l 201 993 l 76 993 l 76 331 b 457 -19 76 128 192 -19 b 838 331 722 -19 838 128 z "},"Ų":{"ha":914,"x_min":0,"x_max":0,"o":"m 713 993 l 713 331 b 457 92 713 169 629 92 b 201 331 285 92 201 169 l 201 993 l 76 993 l 76 331 b 457 -19 76 128 192 -19 b 492 -18 469 -19 481 -19 b 419 -143 453 -46 419 -92 b 546 -246 419 -204 463 -246 b 636 -232 576 -246 610 -240 l 636 -149 b 568 -162 617 -157 596 -162 b 517 -119 540 -162 517 -147 b 608 0 517 -89 549 -47 l 607 0 b 838 331 767 46 838 171 l 838 993 z "},"Ů":{"ha":914,"x_min":0,"x_max":0,"o":"m 456 1094 b 578 1215 522 1094 578 1143 b 456 1338 578 1286 522 1338 b 335 1215 390 1338 335 1286 b 456 1094 335 1143 390 1094 z m 456 1150 b 392 1215 422 1150 392 1175 b 456 1282 392 1256 422 1282 b 521 1215 489 1282 521 1256 b 456 1150 521 1175 489 1150 z m 838 331 l 838 993 l 713 993 l 713 331 b 457 92 713 169 629 92 b 201 331 285 92 201 169 l 201 993 l 76 993 l 76 331 b 457 -19 76 128 192 -19 b 838 331 722 -19 838 128 z "},"V":{"ha":860,"x_min":0,"x_max":0,"o":"m 14 993 l 361 0 l 499 0 l 846 993 l 714 993 l 431 125 l 429 125 l 146 993 z "},"W":{"ha":1269,"x_min":0,"x_max":0,"o":"m 19 993 l 265 0 l 404 0 l 633 851 l 636 851 l 865 0 l 1004 0 l 1250 993 l 1118 993 l 929 179 l 926 179 l 704 993 l 565 993 l 343 179 l 340 179 l 151 993 z "},"Ẃ":{"ha":1269,"x_min":0,"x_max":0,"o":"m 647 1292 l 588 1115 l 678 1115 l 779 1292 z m 19 993 l 265 0 l 404 0 l 633 851 l 636 851 l 865 0 l 1004 0 l 1250 993 l 1118 993 l 929 179 l 926 179 l 704 993 l 565 993 l 343 179 l 340 179 l 151 993 z "},"Ŵ":{"ha":1269,"x_min":0,"x_max":0,"o":"m 444 1115 l 556 1115 l 633 1232 l 636 1232 l 714 1115 l 825 1115 l 697 1292 l 572 1292 z m 19 993 l 265 0 l 404 0 l 633 851 l 636 851 l 865 0 l 1004 0 l 1250 993 l 1118 993 l 929 179 l 926 179 l 704 993 l 565 993 l 343 179 l 340 179 l 151 993 z "},"Ẅ":{"ha":1269,"x_min":0,"x_max":0,"o":"m 461 1221 b 531 1153 461 1185 486 1153 b 600 1221 575 1153 600 1185 b 531 1290 600 1258 575 1290 b 461 1221 486 1290 461 1258 z m 669 1221 b 739 1153 669 1185 694 1153 b 808 1221 783 1153 808 1185 b 739 1290 808 1258 783 1290 b 669 1221 694 1290 669 1258 z m 19 993 l 265 0 l 404 0 l 633 851 l 636 851 l 865 0 l 1004 0 l 1250 993 l 1118 993 l 929 179 l 926 179 l 704 993 l 565 993 l 343 179 l 340 179 l 151 993 z "},"Ẁ":{"ha":1269,"x_min":0,"x_max":0,"o":"m 622 1292 l 490 1292 l 592 1115 l 682 1115 z m 19 993 l 265 0 l 404 0 l 633 851 l 636 851 l 865 0 l 1004 0 l 1250 993 l 1118 993 l 929 179 l 926 179 l 704 993 l 565 993 l 343 179 l 340 179 l 151 993 z "},"X":{"ha":856,"x_min":0,"x_max":0,"o":"m 358 507 l 19 0 l 172 0 l 426 418 l 428 418 l 683 0 l 836 0 l 497 510 l 813 993 l 674 993 l 428 596 l 426 596 l 182 993 l 43 993 z "},"Y":{"ha":876,"x_min":0,"x_max":0,"o":"m 14 993 l 375 407 l 375 0 l 500 0 l 500 407 l 863 993 l 728 993 l 439 507 l 436 507 l 149 993 z "},"Ý":{"ha":876,"x_min":0,"x_max":0,"o":"m 451 1292 l 392 1115 l 482 1115 l 583 1292 z m 14 993 l 375 407 l 375 0 l 500 0 l 500 407 l 863 993 l 728 993 l 439 507 l 436 507 l 149 993 z "},"Ŷ":{"ha":876,"x_min":0,"x_max":0,"o":"m 249 1115 l 360 1115 l 438 1232 l 440 1232 l 518 1115 l 629 1115 l 501 1292 l 376 1292 z m 14 993 l 375 407 l 375 0 l 500 0 l 500 407 l 863 993 l 728 993 l 439 507 l 436 507 l 149 993 z "},"Ÿ":{"ha":876,"x_min":0,"x_max":0,"o":"m 265 1221 b 335 1153 265 1185 290 1153 b 404 1221 379 1153 404 1185 b 335 1290 404 1258 379 1290 b 265 1221 290 1290 265 1258 z m 474 1221 b 543 1153 474 1185 499 1153 b 613 1221 588 1153 613 1185 b 543 1290 613 1258 588 1290 b 474 1221 499 1290 474 1258 z m 14 993 l 375 407 l 375 0 l 500 0 l 500 407 l 863 993 l 728 993 l 439 507 l 436 507 l 149 993 z "},"Ỳ":{"ha":876,"x_min":0,"x_max":0,"o":"m 426 1292 l 294 1292 l 396 1115 l 486 1115 z m 14 993 l 375 407 l 375 0 l 500 0 l 500 407 l 863 993 l 728 993 l 439 507 l 436 507 l 149 993 z "},"Z":{"ha":864,"x_min":0,"x_max":0,"o":"m 69 993 l 69 882 l 647 882 l 647 879 l 42 111 l 42 0 l 814 0 l 814 111 l 194 111 l 194 114 l 800 882 l 800 993 z "},"Ź":{"ha":864,"x_min":0,"x_max":0,"o":"m 440 1292 l 381 1115 l 471 1115 l 572 1292 z m 69 993 l 69 882 l 647 882 l 647 879 l 42 111 l 42 0 l 814 0 l 814 111 l 194 111 l 194 114 l 800 882 l 800 993 z "},"Ž":{"ha":864,"x_min":0,"x_max":0,"o":"m 238 1292 l 365 1115 l 490 1115 l 618 1292 l 507 1292 l 429 1175 l 426 1175 l 349 1292 z m 69 993 l 69 882 l 647 882 l 647 879 l 42 111 l 42 0 l 814 0 l 814 111 l 194 111 l 194 114 l 800 882 l 800 993 z "},"Ż":{"ha":864,"x_min":0,"x_max":0,"o":"m 358 1221 b 428 1153 358 1185 383 1153 b 497 1221 472 1153 497 1185 b 428 1290 497 1258 472 1290 b 358 1221 383 1290 358 1258 z m 69 993 l 69 882 l 647 882 l 647 879 l 42 111 l 42 0 l 814 0 l 814 111 l 194 111 l 194 114 l 800 882 l 800 993 z "},"a":{"ha":708,"x_min":0,"x_max":0,"o":"m 510 528 b 336 419 510 457 456 442 b 33 182 153 385 33 343 b 267 -19 33 63 124 -19 b 507 89 383 -19 463 22 l 510 89 b 636 -7 529 11 569 -7 b 701 4 657 -7 672 -6 l 701 82 b 621 160 631 74 621 104 l 621 504 b 365 728 621 675 500 728 b 68 489 160 728 75 625 l 179 489 b 365 631 186 592 231 631 b 510 528 479 631 510 583 z m 278 78 b 144 188 186 78 144 118 b 346 336 144 272 208 307 b 510 392 421 351 489 371 l 510 274 b 278 78 510 138 410 78 z "},"á":{"ha":708,"x_min":0,"x_max":0,"o":"m 378 1007 l 318 831 l 408 831 l 510 1007 z m 510 528 b 336 419 510 457 456 442 b 33 182 153 385 33 343 b 267 -19 33 63 124 -19 b 507 89 383 -19 463 22 l 510 89 b 636 -7 529 11 569 -7 b 701 4 657 -7 672 -6 l 701 82 b 621 160 631 74 621 104 l 621 504 b 365 728 621 675 500 728 b 68 489 160 728 75 625 l 179 489 b 365 631 186 592 231 631 b 510 528 479 631 510 583 z m 278 78 b 144 188 186 78 144 118 b 346 336 144 272 208 307 b 510 392 421 351 489 371 l 510 274 b 278 78 510 138 410 78 z "},"ă":{"ha":708,"x_min":0,"x_max":0,"o":"m 365 825 b 542 1007 467 825 536 888 l 458 1007 b 365 908 454 939 425 908 b 272 1007 306 908 276 939 l 189 1007 b 365 825 193 883 267 825 z m 510 528 b 336 419 510 457 456 442 b 33 182 153 385 33 343 b 267 -19 33 63 124 -19 b 507 89 383 -19 463 22 l 510 89 b 636 -7 529 11 569 -7 b 701 4 657 -7 672 -6 l 701 82 b 621 160 631 74 621 104 l 621 504 b 365 728 621 675 500 728 b 68 489 160 728 75 625 l 179 489 b 365 631 186 592 231 631 b 510 528 479 631 510 583 z m 278 78 b 144 188 186 78 144 118 b 346 336 144 272 208 307 b 510 392 421 351 489 371 l 510 274 b 278 78 510 138 410 78 z "},"â":{"ha":708,"x_min":0,"x_max":0,"o":"m 175 831 l 286 831 l 364 947 l 367 947 l 444 831 l 556 831 l 428 1007 l 303 1007 z m 510 528 b 336 419 510 457 456 442 b 33 182 153 385 33 343 b 267 -19 33 63 124 -19 b 507 89 383 -19 463 22 l 510 89 b 636 -7 529 11 569 -7 b 701 4 657 -7 672 -6 l 701 82 b 621 160 631 74 621 104 l 621 504 b 365 728 621 675 500 728 b 68 489 160 728 75 625 l 179 489 b 365 631 186 592 231 631 b 510 528 479 631 510 583 z m 278 78 b 144 188 186 78 144 118 b 346 336 144 272 208 307 b 510 392 421 351 489 371 l 510 274 b 278 78 510 138 410 78 z "},"ä":{"ha":708,"x_min":0,"x_max":0,"o":"m 192 936 b 261 868 192 900 217 868 b 331 936 306 868 331 900 b 261 1006 331 974 306 1006 b 192 936 217 1006 192 974 z m 400 936 b 469 868 400 900 425 868 b 539 936 514 868 539 900 b 469 1006 539 974 514 1006 b 400 936 425 1006 400 974 z m 510 528 b 336 419 510 457 456 442 b 33 182 153 385 33 343 b 267 -19 33 63 124 -19 b 507 89 383 -19 463 22 l 510 89 b 636 -7 529 11 569 -7 b 701 4 657 -7 672 -6 l 701 82 b 621 160 631 74 621 104 l 621 504 b 365 728 621 675 500 728 b 68 489 160 728 75 625 l 179 489 b 365 631 186 592 231 631 b 510 528 479 631 510 583 z m 278 78 b 144 188 186 78 144 118 b 346 336 144 272 208 307 b 510 392 421 351 489 371 l 510 274 b 278 78 510 138 410 78 z "},"à":{"ha":708,"x_min":0,"x_max":0,"o":"m 353 1007 l 221 1007 l 322 831 l 413 831 z m 510 528 b 336 419 510 457 456 442 b 33 182 153 385 33 343 b 267 -19 33 63 124 -19 b 507 89 383 -19 463 22 l 510 89 b 636 -7 529 11 569 -7 b 701 4 657 -7 672 -6 l 701 82 b 621 160 631 74 621 104 l 621 504 b 365 728 621 675 500 728 b 68 489 160 728 75 625 l 179 489 b 365 631 186 592 231 631 b 510 528 479 631 510 583 z m 278 78 b 144 188 186 78 144 118 b 346 336 144 272 208 307 b 510 392 421 351 489 371 l 510 274 b 278 78 510 138 410 78 z "},"ā":{"ha":708,"x_min":0,"x_max":0,"o":"m 186 972 l 186 875 l 544 875 l 544 972 z m 510 528 b 336 419 510 457 456 442 b 33 182 153 385 33 343 b 267 -19 33 63 124 -19 b 507 89 383 -19 463 22 l 510 89 b 636 -7 529 11 569 -7 b 701 4 657 -7 672 -6 l 701 82 b 621 160 631 74 621 104 l 621 504 b 365 728 621 675 500 728 b 68 489 160 728 75 625 l 179 489 b 365 631 186 592 231 631 b 510 528 479 631 510 583 z m 278 78 b 144 188 186 78 144 118 b 346 336 144 272 208 307 b 510 392 421 351 489 371 l 510 274 b 278 78 510 138 410 78 z "},"ą":{"ha":708,"x_min":0,"x_max":0,"o":"m 647 -162 b 596 -119 619 -162 596 -147 b 688 0 596 -89 628 -47 l 701 4 l 701 82 b 621 160 631 74 621 104 l 621 504 b 365 728 621 675 500 728 b 68 489 160 728 75 625 l 179 489 b 365 631 186 592 231 631 b 510 528 479 631 510 583 b 336 419 510 457 456 442 b 33 182 153 385 33 343 b 267 -19 33 63 124 -19 b 507 89 383 -19 463 22 l 510 89 b 596 -4 525 28 553 4 b 499 -143 549 -28 499 -82 b 625 -246 499 -204 542 -246 b 715 -232 656 -246 689 -240 l 715 -149 b 647 -162 696 -157 675 -162 z m 510 274 b 278 78 510 138 410 78 b 144 188 186 78 144 118 b 346 336 144 272 208 307 b 510 392 421 351 489 371 z "},"å":{"ha":708,"x_min":0,"x_max":0,"o":"m 364 810 b 486 931 431 810 486 858 b 364 1053 486 1001 431 1053 b 243 931 299 1053 243 1001 b 364 810 243 858 299 810 z m 364 865 b 300 931 331 865 300 890 b 364 997 300 971 331 997 b 429 931 397 997 429 971 b 364 865 429 890 397 865 z m 510 528 b 336 419 510 457 456 442 b 33 182 153 385 33 343 b 267 -19 33 63 124 -19 b 507 89 383 -19 463 22 l 510 89 b 636 -7 529 11 569 -7 b 701 4 657 -7 672 -6 l 701 82 b 621 160 631 74 621 104 l 621 504 b 365 728 621 675 500 728 b 68 489 160 728 75 625 l 179 489 b 365 631 186 592 231 631 b 510 528 479 631 510 583 z m 278 78 b 144 188 186 78 144 118 b 346 336 144 272 208 307 b 510 392 421 351 489 371 l 510 274 b 278 78 510 138 410 78 z "},"ã":{"ha":708,"x_min":0,"x_max":0,"o":"m 171 865 l 254 865 b 286 913 254 882 257 913 b 456 863 324 913 388 863 b 558 993 507 863 558 897 l 475 993 b 443 946 475 974 472 946 b 274 996 406 946 342 996 b 171 865 222 996 171 958 z m 510 528 b 336 419 510 457 456 442 b 33 182 153 385 33 343 b 267 -19 33 63 124 -19 b 507 89 383 -19 463 22 l 510 89 b 636 -7 529 11 569 -7 b 701 4 657 -7 672 -6 l 701 82 b 621 160 631 74 621 104 l 621 504 b 365 728 621 675 500 728 b 68 489 160 728 75 625 l 179 489 b 365 631 186 592 231 631 b 510 528 479 631 510 583 z m 278 78 b 144 188 186 78 144 118 b 346 336 144 272 208 307 b 510 392 421 351 489 371 l 510 274 b 278 78 510 138 410 78 z "},"æ":{"ha":1214,"x_min":0,"x_max":0,"o":"m 851 78 b 621 325 697 78 621 197 l 1181 325 b 850 728 1181 576 1072 728 b 594 621 742 728 654 690 b 365 728 553 700 463 728 b 68 489 160 728 75 625 l 179 489 b 365 631 186 592 231 631 b 510 528 479 631 510 583 b 336 419 510 457 456 442 b 33 182 153 385 33 343 b 267 -19 33 63 124 -19 b 572 121 383 -19 507 21 b 856 -19 632 33 729 -19 b 1169 218 1032 -19 1133 86 l 1058 218 b 851 78 1046 169 993 78 z m 850 631 b 1069 422 983 631 1069 536 l 621 422 b 850 631 621 536 717 631 z m 510 274 b 278 78 510 172 438 78 b 144 188 186 78 144 118 b 346 336 144 272 208 307 b 510 392 421 351 489 371 z "},"b":{"ha":768,"x_min":0,"x_max":0,"o":"m 413 728 b 190 617 299 728 232 678 l 188 617 l 188 993 l 76 993 l 76 0 l 188 0 l 188 88 l 190 88 b 413 -19 232 33 299 -19 b 732 354 590 -19 732 121 b 413 728 732 588 590 728 z m 401 78 b 188 354 269 78 188 188 b 401 631 188 521 269 631 b 621 354 547 631 621 493 b 401 78 621 215 547 78 z "},"c":{"ha":721,"x_min":0,"x_max":0,"o":"m 579 453 l 690 453 b 379 728 674 611 554 728 b 36 354 172 728 36 576 b 379 -19 36 132 172 -19 b 690 261 554 -19 681 100 l 579 261 b 379 78 574 176 522 78 b 147 354 211 78 147 221 b 379 631 147 488 211 631 b 579 453 521 631 574 531 z "},"ć":{"ha":721,"x_min":0,"x_max":0,"o":"m 376 1007 l 317 831 l 407 831 l 508 1007 z m 579 453 l 690 453 b 379 728 674 611 554 728 b 36 354 172 728 36 576 b 379 -19 36 132 172 -19 b 690 261 554 -19 681 100 l 579 261 b 379 78 574 176 522 78 b 147 354 211 78 147 221 b 379 631 147 488 211 631 b 579 453 521 631 574 531 z "},"č":{"ha":721,"x_min":0,"x_max":0,"o":"m 174 1007 l 301 831 l 426 831 l 554 1007 l 443 1007 l 365 890 l 363 890 l 285 1007 z m 579 453 l 690 453 b 379 728 674 611 554 728 b 36 354 172 728 36 576 b 379 -19 36 132 172 -19 b 690 261 554 -19 681 100 l 579 261 b 379 78 574 176 522 78 b 147 354 211 78 147 221 b 379 631 147 488 211 631 b 579 453 521 631 574 531 z "},"ç":{"ha":721,"x_min":0,"x_max":0,"o":"m 379 78 b 147 354 211 78 147 221 b 379 631 147 488 211 631 b 579 453 521 631 574 531 l 690 453 b 379 728 674 611 554 728 b 36 354 172 728 36 576 b 326 -17 36 151 150 7 l 253 -112 l 269 -139 b 325 -129 282 -133 310 -129 b 394 -167 374 -129 394 -140 b 318 -218 394 -196 364 -218 b 214 -197 275 -218 247 -210 l 185 -232 b 333 -272 218 -256 276 -272 b 478 -168 406 -272 478 -235 b 343 -85 478 -96 397 -76 l 343 -82 l 394 -19 b 690 261 561 -12 681 104 l 579 261 b 379 78 574 176 522 78 z "},"ċ":{"ha":721,"x_min":0,"x_max":0,"o":"m 294 936 b 364 868 294 900 319 868 b 433 936 408 868 433 900 b 364 1006 433 974 408 1006 b 294 936 319 1006 294 974 z m 579 453 l 690 453 b 379 728 674 611 554 728 b 36 354 172 728 36 576 b 379 -19 36 132 172 -19 b 690 261 554 -19 681 100 l 579 261 b 379 78 574 176 522 78 b 147 354 211 78 147 221 b 379 631 147 488 211 631 b 579 453 521 631 574 531 z "},"d":{"ha":768,"x_min":0,"x_max":0,"o":"m 581 993 l 581 617 l 578 617 b 356 728 536 678 469 728 b 36 354 178 728 36 588 b 356 -19 36 121 178 -19 b 578 88 469 -19 536 33 l 581 88 l 581 0 l 692 0 l 692 993 z m 367 78 b 147 354 221 78 147 215 b 367 631 147 493 221 631 b 581 354 499 631 581 521 b 367 78 581 188 499 78 z "},"ð":{"ha":765,"x_min":0,"x_max":0,"o":"m 550 863 l 693 900 l 674 967 l 492 918 b 388 993 453 953 415 978 l 236 993 b 382 889 282 965 333 931 l 206 842 l 224 775 l 444 833 b 597 607 511 768 569 690 l 597 604 b 376 733 550 681 465 733 b 36 357 192 733 36 594 b 376 -22 36 129 158 -22 b 729 411 635 -22 729 203 b 550 863 729 614 642 763 z m 376 75 b 147 357 224 75 147 210 b 376 636 147 504 224 636 b 618 357 528 636 618 504 b 376 75 618 210 528 75 z "},"ď":{"ha":815,"x_min":0,"x_max":0,"o":"m 844 1000 b 764 921 792 1000 764 967 b 867 844 764 867 806 831 b 775 764 867 807 815 771 l 775 714 b 931 883 889 726 931 819 b 844 1000 931 951 901 1000 z m 581 617 l 578 617 b 356 728 536 678 469 728 b 36 354 178 728 36 588 b 356 -19 36 121 178 -19 b 578 88 469 -19 536 33 l 581 88 l 581 0 l 692 0 l 692 993 l 581 993 z m 367 78 b 147 354 221 78 147 215 b 367 631 147 493 221 631 b 581 354 499 631 581 521 b 367 78 581 188 499 78 z "},"đ":{"ha":776,"x_min":0,"x_max":0,"o":"m 788 910 l 692 910 l 692 993 l 581 993 l 581 910 l 374 910 l 374 813 l 581 813 l 581 617 l 578 617 b 356 728 536 678 469 728 b 36 354 178 728 36 588 b 356 -19 36 121 178 -19 b 578 88 469 -19 536 33 l 581 88 l 581 0 l 692 0 l 692 813 l 788 813 z m 367 78 b 147 354 221 78 147 215 b 367 631 147 493 221 631 b 581 354 499 631 581 521 b 367 78 581 188 499 78 z "},"e":{"ha":740,"x_min":0,"x_max":0,"o":"m 378 78 b 147 325 224 78 147 197 l 707 325 b 376 728 707 576 599 728 b 36 354 169 728 36 590 b 382 -19 36 132 167 -19 b 696 218 558 -19 660 86 l 585 218 b 378 78 572 169 519 78 z m 376 631 b 596 422 510 631 596 536 l 147 422 b 376 631 147 536 243 631 z "},"é":{"ha":740,"x_min":0,"x_max":0,"o":"m 517 1007 l 385 1007 l 325 831 l 415 831 z m 378 78 b 147 325 224 78 147 197 l 707 325 b 376 728 707 576 599 728 b 36 354 169 728 36 590 b 382 -19 36 132 167 -19 b 696 218 558 -19 660 86 l 585 218 b 378 78 572 169 519 78 z m 376 631 b 596 422 510 631 596 536 l 147 422 b 376 631 147 536 243 631 z "},"ě":{"ha":740,"x_min":0,"x_max":0,"o":"m 435 831 l 563 1007 l 451 1007 l 374 890 l 371 890 l 293 1007 l 182 1007 l 310 831 z m 378 78 b 147 325 224 78 147 197 l 707 325 b 376 728 707 576 599 728 b 36 354 169 728 36 590 b 382 -19 36 132 167 -19 b 696 218 558 -19 660 86 l 585 218 b 378 78 572 169 519 78 z m 376 631 b 596 422 510 631 596 536 l 147 422 b 376 631 147 536 243 631 z "},"ê":{"ha":740,"x_min":0,"x_max":0,"o":"m 371 947 l 374 947 l 451 831 l 563 831 l 435 1007 l 310 1007 l 182 831 l 293 831 z m 378 78 b 147 325 224 78 147 197 l 707 325 b 376 728 707 576 599 728 b 36 354 169 728 36 590 b 382 -19 36 132 167 -19 b 696 218 558 -19 660 86 l 585 218 b 378 78 572 169 519 78 z m 376 631 b 596 422 510 631 596 536 l 147 422 b 376 631 147 536 243 631 z "},"ë":{"ha":740,"x_min":0,"x_max":0,"o":"m 268 868 b 338 936 313 868 338 900 b 268 1006 338 974 313 1006 b 199 936 224 1006 199 974 b 268 868 199 900 224 868 z m 476 868 b 546 936 521 868 546 900 b 476 1006 546 974 521 1006 b 407 936 432 1006 407 974 b 476 868 407 900 432 868 z m 378 78 b 147 325 224 78 147 197 l 707 325 b 376 728 707 576 599 728 b 36 354 169 728 36 590 b 382 -19 36 132 167 -19 b 696 218 558 -19 660 86 l 585 218 b 378 78 572 169 519 78 z m 376 631 b 596 422 510 631 596 536 l 147 422 b 376 631 147 536 243 631 z "},"ė":{"ha":740,"x_min":0,"x_max":0,"o":"m 372 868 b 442 936 417 868 442 900 b 372 1006 442 974 417 1006 b 303 936 328 1006 303 974 b 372 868 303 900 328 868 z m 378 78 b 147 325 224 78 147 197 l 707 325 b 376 728 707 576 599 728 b 36 354 169 728 36 590 b 382 -19 36 132 167 -19 b 696 218 558 -19 660 86 l 585 218 b 378 78 572 169 519 78 z m 376 631 b 596 422 510 631 596 536 l 147 422 b 376 631 147 536 243 631 z "},"è":{"ha":740,"x_min":0,"x_max":0,"o":"m 419 831 l 360 1007 l 228 1007 l 329 831 z m 378 78 b 147 325 224 78 147 197 l 707 325 b 376 728 707 576 599 728 b 36 354 169 728 36 590 b 382 -19 36 132 167 -19 b 696 218 558 -19 660 86 l 585 218 b 378 78 572 169 519 78 z m 376 631 b 596 422 510 631 596 536 l 147 422 b 376 631 147 536 243 631 z "},"ē":{"ha":740,"x_min":0,"x_max":0,"o":"m 551 972 l 193 972 l 193 875 l 551 875 z m 378 78 b 147 325 224 78 147 197 l 707 325 b 376 728 707 576 599 728 b 36 354 169 728 36 590 b 382 -19 36 132 167 -19 b 696 218 558 -19 660 86 l 585 218 b 378 78 572 169 519 78 z m 376 631 b 596 422 510 631 596 536 l 147 422 b 376 631 147 536 243 631 z "},"ę":{"ha":740,"x_min":0,"x_max":0,"o":"m 378 78 b 147 325 224 78 147 197 l 707 325 b 376 728 707 576 599 728 b 36 354 169 728 36 590 b 382 -19 36 132 167 -19 l 383 -19 b 313 -143 346 -47 313 -93 b 439 -246 313 -204 356 -246 b 529 -232 469 -246 503 -240 l 529 -149 b 461 -162 510 -157 489 -162 b 410 -119 433 -162 410 -147 b 500 -1 410 -89 442 -47 b 696 218 606 35 668 119 l 585 218 b 378 78 572 169 519 78 z m 376 631 b 596 422 510 631 596 536 l 147 422 b 376 631 147 536 243 631 z "},"f":{"ha":407,"x_min":0,"x_max":0,"o":"m 375 896 l 375 993 b 296 1001 350 999 321 1001 b 129 819 201 1001 129 964 l 129 708 l 31 708 l 31 611 l 129 611 l 129 0 l 240 0 l 240 611 l 375 611 l 375 708 l 240 708 l 240 808 b 375 896 240 889 281 903 z "},"g":{"ha":768,"x_min":0,"x_max":0,"o":"m 581 708 l 581 621 l 578 621 b 353 728 536 675 469 728 b 36 382 178 728 36 615 b 353 36 36 149 178 36 b 578 147 469 36 536 86 l 581 147 l 581 40 b 372 -149 581 -92 504 -149 b 168 -22 240 -149 182 -94 l 57 -22 b 378 -246 68 -143 183 -246 b 692 39 572 -246 692 -150 l 692 708 z m 367 133 b 147 382 221 133 147 243 b 367 631 147 521 221 631 b 581 382 499 631 581 549 b 367 133 581 215 499 133 z "},"ğ":{"ha":768,"x_min":0,"x_max":0,"o":"m 364 825 b 540 1007 465 825 535 888 l 457 1007 b 364 908 453 939 424 908 b 271 1007 304 908 275 939 l 188 1007 b 364 825 192 883 265 825 z m 581 708 l 581 621 l 578 621 b 353 728 536 675 469 728 b 36 382 178 728 36 615 b 353 36 36 149 178 36 b 578 147 469 36 536 86 l 581 147 l 581 40 b 372 -149 581 -92 504 -149 b 168 -22 240 -149 182 -94 l 57 -22 b 378 -246 68 -143 183 -246 b 692 39 572 -246 692 -150 l 692 708 z m 367 133 b 147 382 221 133 147 243 b 367 631 147 521 221 631 b 581 382 499 631 581 549 b 367 133 581 215 499 133 z "},"ģ":{"ha":768,"x_min":0,"x_max":0,"o":"m 368 793 b 440 869 407 793 440 824 b 357 936 440 931 400 950 b 426 1035 357 988 383 1025 l 426 1090 b 288 911 318 1071 288 971 b 368 793 288 842 314 793 z m 581 708 l 581 621 l 578 621 b 353 728 536 675 469 728 b 36 382 178 728 36 615 b 353 36 36 149 178 36 b 578 147 469 36 536 86 l 581 147 l 581 40 b 372 -149 581 -92 504 -149 b 168 -22 240 -149 182 -94 l 57 -22 b 378 -246 68 -143 183 -246 b 692 39 572 -246 692 -150 l 692 708 z m 367 133 b 147 382 221 133 147 243 b 367 631 147 521 221 631 b 581 382 499 631 581 549 b 367 133 581 215 499 133 z "},"ġ":{"ha":768,"x_min":0,"x_max":0,"o":"m 364 868 b 433 936 408 868 433 900 b 364 1006 433 974 408 1006 b 294 936 319 1006 294 974 b 364 868 294 900 319 868 z m 581 708 l 581 621 l 578 621 b 353 728 536 675 469 728 b 36 382 178 728 36 615 b 353 36 36 149 178 36 b 578 147 469 36 536 86 l 581 147 l 581 40 b 372 -149 581 -92 504 -149 b 168 -22 240 -149 182 -94 l 57 -22 b 378 -246 68 -143 183 -246 b 692 39 572 -246 692 -150 l 692 708 z m 367 133 b 147 382 221 133 147 243 b 367 631 147 521 221 631 b 581 382 499 631 581 549 b 367 133 581 215 499 133 z "},"h":{"ha":733,"x_min":0,"x_max":0,"o":"m 424 728 b 190 624 303 728 228 674 l 188 624 l 188 993 l 76 993 l 76 0 l 188 0 l 188 442 b 396 631 188 551 271 631 b 550 467 507 631 550 558 l 550 0 l 661 0 l 661 494 b 424 728 661 657 553 728 z "},"ħ":{"ha":743,"x_min":0,"x_max":0,"o":"m 433 728 b 200 624 313 728 238 674 l 197 624 l 197 813 l 403 813 l 403 910 l 197 910 l 197 993 l 86 993 l 86 910 l -11 910 l -11 813 l 86 813 l 86 0 l 197 0 l 197 442 b 406 631 197 551 281 631 b 560 467 517 631 560 558 l 560 0 l 671 0 l 671 494 b 433 728 671 657 563 728 z "},"i":{"ha":292,"x_min":0,"x_max":0,"o":"m 146 846 b 215 913 178 846 215 869 b 146 979 215 956 178 979 b 76 913 115 979 76 956 b 146 846 76 869 115 846 z m 90 708 l 90 0 l 201 0 l 201 708 z "},"ı":{"ha":194,"x_min":0,"x_max":0,"o":"m 42 708 l 42 0 l 153 0 l 153 708 z "},"í":{"ha":194,"x_min":0,"x_max":0,"o":"m 110 1007 l 50 831 l 140 831 l 242 1007 z m 42 708 l 42 0 l 153 0 l 153 708 z "},"î":{"ha":194,"x_min":0,"x_max":0,"o":"m -93 831 l 18 831 l 96 947 l 99 947 l 176 831 l 288 831 l 160 1007 l 35 1007 z m 42 708 l 42 0 l 153 0 l 153 708 z "},"ï":{"ha":194,"x_min":0,"x_max":0,"o":"m -76 936 b -7 868 -76 900 -51 868 b 63 936 38 868 63 900 b -7 1006 63 974 38 1006 b -76 936 -51 1006 -76 974 z m 132 936 b 201 868 132 900 157 868 b 271 936 246 868 271 900 b 201 1006 271 974 246 1006 b 132 936 157 1006 132 974 z m 42 708 l 42 0 l 153 0 l 153 708 z "},"ì":{"ha":194,"x_min":0,"x_max":0,"o":"m 85 1007 l -47 1007 l 54 831 l 144 831 z m 42 708 l 42 0 l 153 0 l 153 708 z "},"ī":{"ha":194,"x_min":0,"x_max":0,"o":"m -82 972 l -82 875 l 276 875 l 276 972 z m 42 708 l 42 0 l 153 0 l 153 708 z "},"į":{"ha":194,"x_min":0,"x_max":0,"o":"m 97 868 b 167 936 142 868 167 900 b 97 1006 167 974 142 1006 b 28 936 53 1006 28 974 b 97 868 28 900 53 868 z m 113 -162 b 61 -119 85 -162 61 -147 b 153 0 61 -89 93 -47 l 153 708 l 42 708 l 42 0 l 69 0 b -36 -143 19 -21 -36 -78 b 90 -246 -36 -204 7 -246 b 181 -232 121 -246 154 -240 l 181 -149 b 113 -162 161 -157 140 -162 z "},"j":{"ha":279,"x_min":0,"x_max":0,"o":"m 133 846 b 203 913 165 846 203 869 b 133 979 203 956 165 979 b 64 913 103 979 64 956 b 133 846 64 869 103 846 z m 78 708 l 78 -60 b -39 -140 78 -140 56 -147 l -39 -224 b 64 -239 1 -235 29 -239 b 189 -49 158 -239 189 -167 l 189 708 z "},"k":{"ha":679,"x_min":0,"x_max":0,"o":"m 76 993 l 76 0 l 188 0 l 188 279 l 297 381 l 549 0 l 681 0 l 375 446 l 651 708 l 513 708 l 188 404 l 188 993 z "},"ķ":{"ha":679,"x_min":0,"x_max":0,"o":"m 76 993 l 76 0 l 188 0 l 188 279 l 297 381 l 549 0 l 681 0 l 375 446 l 651 708 l 513 708 l 188 404 l 188 993 z m 386 -225 b 317 -310 386 -276 360 -300 l 317 -365 b 456 -200 425 -346 456 -260 b 375 -82 456 -131 429 -82 b 303 -158 336 -82 303 -112 b 386 -225 303 -219 343 -239 z "},"l":{"ha":272,"x_min":0,"x_max":0,"o":"m 81 993 l 81 0 l 192 0 l 192 993 z "},"ĺ":{"ha":260,"x_min":0,"x_max":0,"o":"m 156 1246 l 96 1069 l 186 1069 l 288 1246 z m 81 993 l 81 0 l 192 0 l 192 993 z "},"ľ":{"ha":319,"x_min":0,"x_max":0,"o":"m 367 844 b 275 764 367 807 315 771 l 275 714 b 431 883 389 726 431 819 b 344 1000 431 951 401 1000 b 264 921 292 1000 264 967 b 367 844 264 867 306 831 z m 81 993 l 81 0 l 192 0 l 192 993 z "},"ļ":{"ha":272,"x_min":0,"x_max":0,"o":"m 81 993 l 81 0 l 192 0 l 192 993 z m 143 -225 b 74 -310 143 -276 117 -300 l 74 -365 b 213 -200 182 -346 213 -260 b 132 -82 213 -131 186 -82 b 60 -158 93 -82 60 -112 b 143 -225 60 -219 100 -239 z "},"ł":{"ha":315,"x_min":0,"x_max":0,"o":"m 324 697 l 221 624 l 221 993 l 110 993 l 110 543 l 7 469 l 7 363 l 110 436 l 110 0 l 221 0 l 221 517 l 324 590 z "},"m":{"ha":1101,"x_min":0,"x_max":0,"o":"m 817 728 b 588 606 710 728 636 672 l 585 606 b 396 728 556 685 497 728 b 190 624 289 728 228 674 l 188 624 l 188 708 l 76 708 l 76 0 l 188 0 l 188 442 b 368 631 188 551 257 631 b 497 467 479 631 497 558 l 497 0 l 608 0 l 608 442 b 789 631 608 551 678 631 b 918 467 900 631 918 558 l 918 0 l 1029 0 l 1029 494 b 817 728 1029 643 960 728 z "},"n":{"ha":733,"x_min":0,"x_max":0,"o":"m 424 728 b 190 624 303 728 228 674 l 188 624 l 188 708 l 76 708 l 76 0 l 188 0 l 188 442 b 396 631 188 551 271 631 b 550 467 507 631 550 558 l 550 0 l 661 0 l 661 494 b 424 728 661 657 553 728 z "},"ń":{"ha":733,"x_min":0,"x_max":0,"o":"m 514 1007 l 382 1007 l 322 831 l 413 831 z m 424 728 b 190 624 303 728 228 674 l 188 624 l 188 708 l 76 708 l 76 0 l 188 0 l 188 442 b 396 631 188 551 271 631 b 550 467 507 631 550 558 l 550 0 l 661 0 l 661 494 b 424 728 661 657 553 728 z "},"ň":{"ha":733,"x_min":0,"x_max":0,"o":"m 432 831 l 560 1007 l 449 1007 l 371 890 l 368 890 l 290 1007 l 179 1007 l 307 831 z m 424 728 b 190 624 303 728 228 674 l 188 624 l 188 708 l 76 708 l 76 0 l 188 0 l 188 442 b 396 631 188 551 271 631 b 550 467 507 631 550 558 l 550 0 l 661 0 l 661 494 b 424 728 661 657 553 728 z "},"ņ":{"ha":733,"x_min":0,"x_max":0,"o":"m 424 728 b 190 624 303 728 228 674 l 188 624 l 188 708 l 76 708 l 76 0 l 188 0 l 188 442 b 396 631 188 551 271 631 b 550 467 507 631 550 558 l 550 0 l 661 0 l 661 494 b 424 728 661 657 553 728 z m 365 -82 b 293 -158 326 -82 293 -112 b 376 -225 293 -219 333 -239 b 307 -310 376 -276 350 -300 l 307 -365 b 446 -200 415 -346 446 -260 b 365 -82 446 -131 419 -82 z "},"ŋ":{"ha":733,"x_min":0,"x_max":0,"o":"m 424 728 b 190 624 303 728 228 674 l 188 624 l 188 708 l 76 708 l 76 0 l 188 0 l 188 442 b 396 631 188 551 271 631 b 550 467 507 631 550 558 l 550 -37 b 411 -125 550 -118 506 -132 l 411 -222 b 494 -231 436 -228 465 -231 b 661 -49 589 -231 661 -193 l 661 494 b 424 728 661 657 553 728 z "},"ñ":{"ha":733,"x_min":0,"x_max":0,"o":"m 290 913 b 460 863 328 913 392 863 b 563 993 511 863 563 897 l 479 993 b 447 946 479 974 476 946 b 278 996 410 946 346 996 b 175 865 226 996 175 958 l 258 865 b 290 913 258 882 261 913 z m 424 728 b 190 624 303 728 228 674 l 188 624 l 188 708 l 76 708 l 76 0 l 188 0 l 188 442 b 396 631 188 551 271 631 b 550 467 507 631 550 558 l 550 0 l 661 0 l 661 494 b 424 728 661 657 553 728 z "},"o":{"ha":765,"x_min":0,"x_max":0,"o":"m 383 -19 b 36 354 167 -19 36 133 b 383 728 36 575 167 728 b 729 354 599 728 729 575 b 383 -19 729 133 599 -19 z m 383 78 b 618 354 542 78 618 203 b 383 631 618 506 542 631 b 147 354 224 631 147 506 b 383 78 147 203 224 78 z "},"ó":{"ha":765,"x_min":0,"x_max":0,"o":"m 396 1007 l 336 831 l 426 831 l 528 1007 z m 383 -19 b 36 354 167 -19 36 133 b 383 728 36 575 167 728 b 729 354 599 728 729 575 b 383 -19 729 133 599 -19 z m 383 78 b 618 354 542 78 618 203 b 383 631 618 506 542 631 b 147 354 224 631 147 506 b 383 78 147 203 224 78 z "},"ô":{"ha":765,"x_min":0,"x_max":0,"o":"m 193 831 l 304 831 l 382 947 l 385 947 l 463 831 l 574 831 l 446 1007 l 321 1007 z m 383 -19 b 36 354 167 -19 36 133 b 383 728 36 575 167 728 b 729 354 599 728 729 575 b 383 -19 729 133 599 -19 z m 383 78 b 618 354 542 78 618 203 b 383 631 618 506 542 631 b 147 354 224 631 147 506 b 383 78 147 203 224 78 z "},"ö":{"ha":765,"x_min":0,"x_max":0,"o":"m 210 936 b 279 868 210 900 235 868 b 349 936 324 868 349 900 b 279 1006 349 974 324 1006 b 210 936 235 1006 210 974 z m 418 936 b 488 868 418 900 443 868 b 557 936 532 868 557 900 b 488 1006 557 974 532 1006 b 418 936 443 1006 418 974 z m 383 -19 b 36 354 167 -19 36 133 b 383 728 36 575 167 728 b 729 354 599 728 729 575 b 383 -19 729 133 599 -19 z m 383 78 b 618 354 542 78 618 203 b 383 631 618 506 542 631 b 147 354 224 631 147 506 b 383 78 147 203 224 78 z "},"ò":{"ha":765,"x_min":0,"x_max":0,"o":"m 371 1007 l 239 1007 l 340 831 l 431 831 z m 383 -19 b 36 354 167 -19 36 133 b 383 728 36 575 167 728 b 729 354 599 728 729 575 b 383 -19 729 133 599 -19 z m 383 78 b 618 354 542 78 618 203 b 383 631 618 506 542 631 b 147 354 224 631 147 506 b 383 78 147 203 224 78 z "},"ő":{"ha":765,"x_min":0,"x_max":0,"o":"m 290 1007 l 231 831 l 321 831 l 422 1007 z m 488 1007 l 428 831 l 518 831 l 619 1007 z m 383 -19 b 36 354 167 -19 36 133 b 383 728 36 575 167 728 b 729 354 599 728 729 575 b 383 -19 729 133 599 -19 z m 383 78 b 618 354 542 78 618 203 b 383 631 618 506 542 631 b 147 354 224 631 147 506 b 383 78 147 203 224 78 z "},"ō":{"ha":765,"x_min":0,"x_max":0,"o":"m 204 972 l 204 875 l 563 875 l 563 972 z m 383 -19 b 36 354 167 -19 36 133 b 383 728 36 575 167 728 b 729 354 599 728 729 575 b 383 -19 729 133 599 -19 z m 383 78 b 618 354 542 78 618 203 b 383 631 618 506 542 631 b 147 354 224 631 147 506 b 383 78 147 203 224 78 z "},"ø":{"ha":803,"x_min":0,"x_max":0,"o":"m 769 674 l 721 722 l 631 631 b 383 728 571 693 488 728 b 36 354 167 728 36 575 b 110 108 36 257 61 172 l 36 35 l 83 -14 l 156 58 b 383 -19 213 8 290 -19 b 729 354 599 -19 729 133 b 672 576 729 440 710 517 z m 147 354 b 383 631 147 506 224 631 b 556 556 460 631 517 601 l 188 186 b 147 354 160 233 147 292 z m 618 354 b 383 78 618 203 542 78 b 229 133 318 78 268 99 l 592 496 b 618 354 610 454 618 406 z "},"õ":{"ha":765,"x_min":0,"x_max":0,"o":"m 189 865 l 272 865 b 304 913 272 882 275 913 b 474 863 342 913 406 863 b 576 993 525 863 576 897 l 493 993 b 461 946 493 974 490 946 b 292 996 424 946 360 996 b 189 865 240 996 189 958 z m 383 -19 b 36 354 167 -19 36 133 b 383 728 36 575 167 728 b 729 354 599 728 729 575 b 383 -19 729 133 599 -19 z m 383 78 b 618 354 542 78 618 203 b 383 631 618 506 542 631 b 147 354 224 631 147 506 b 383 78 147 203 224 78 z "},"œ":{"ha":1343,"x_min":0,"x_max":0,"o":"m 981 78 b 750 325 826 78 750 197 l 1310 325 b 979 728 1310 576 1201 728 b 682 558 842 728 738 668 b 383 728 626 664 522 728 b 36 354 167 728 36 575 b 383 -19 36 133 167 -19 b 683 153 524 -19 628 46 b 985 -19 739 46 844 -19 b 1299 218 1161 -19 1263 86 l 1188 218 b 981 78 1175 169 1122 78 z m 383 78 b 147 354 224 78 147 203 b 383 631 147 506 224 631 b 618 354 542 631 618 506 b 383 78 618 203 542 78 z m 979 631 b 1199 422 1113 631 1199 536 l 750 422 b 979 631 750 536 846 631 z "},"p":{"ha":772,"x_min":0,"x_max":0,"o":"m 415 728 b 190 621 299 728 232 675 l 188 621 l 188 708 l 76 708 l 76 -239 l 188 -239 l 188 92 l 190 92 b 415 -19 232 31 299 -19 b 732 354 590 -19 732 121 b 415 728 732 588 590 728 z m 401 78 b 188 354 269 78 188 188 b 401 631 188 521 269 631 b 621 354 547 631 621 493 b 401 78 621 215 547 78 z "},"þ":{"ha":768,"x_min":0,"x_max":0,"o":"m 415 728 b 190 621 299 728 232 675 l 188 621 l 188 993 l 76 993 l 76 -239 l 188 -239 l 188 92 l 190 92 b 415 -19 232 31 299 -19 b 732 354 590 -19 732 121 b 415 728 732 588 590 728 z m 401 78 b 188 354 269 78 188 188 b 401 631 188 521 269 631 b 621 354 547 631 621 493 b 401 78 621 215 547 78 z "},"q":{"ha":772,"x_min":0,"x_max":0,"o":"m 585 708 l 585 621 l 582 621 b 357 728 540 675 474 728 b 40 354 182 728 40 588 b 357 -19 40 121 182 -19 b 582 92 474 -19 540 31 l 585 92 l 585 -239 l 696 -239 l 696 708 z m 371 78 b 151 354 225 78 151 215 b 371 631 151 493 225 631 b 585 354 503 631 585 521 b 371 78 585 188 503 78 z "},"r":{"ha":476,"x_min":0,"x_max":0,"o":"m 386 728 b 190 568 285 728 228 661 l 188 568 l 188 708 l 76 708 l 76 0 l 188 0 l 188 378 b 449 613 188 529 294 638 l 451 613 l 451 724 b 386 728 432 726 413 728 z "},"ŕ":{"ha":476,"x_min":0,"x_max":0,"o":"m 408 1007 l 276 1007 l 217 831 l 307 831 z m 386 728 b 190 568 285 728 228 661 l 188 568 l 188 708 l 76 708 l 76 0 l 188 0 l 188 378 b 449 613 188 529 294 638 l 451 613 l 451 724 b 386 728 432 726 413 728 z "},"ř":{"ha":476,"x_min":0,"x_max":0,"o":"m 326 831 l 454 1007 l 343 1007 l 265 890 l 263 890 l 185 1007 l 74 1007 l 201 831 z m 190 568 l 188 568 l 188 708 l 76 708 l 76 0 l 188 0 l 188 378 b 449 613 188 529 294 638 l 451 613 l 451 724 b 386 728 432 726 413 728 b 190 568 285 728 228 661 z "},"ŗ":{"ha":476,"x_min":0,"x_max":0,"o":"m 386 728 b 190 568 285 728 228 661 l 188 568 l 188 708 l 76 708 l 76 0 l 188 0 l 188 378 b 449 613 188 529 294 638 l 451 613 l 451 724 b 386 728 432 726 413 728 z m 131 -82 b 58 -158 92 -82 58 -112 b 142 -225 58 -219 99 -239 b 72 -310 142 -276 115 -300 l 72 -365 b 211 -200 181 -346 211 -260 b 131 -82 211 -131 185 -82 z "},"s":{"ha":665,"x_min":0,"x_max":0,"o":"m 364 421 b 169 535 265 444 169 451 b 324 631 169 590 224 631 b 494 506 457 631 483 560 l 606 506 b 324 728 594 628 500 728 b 58 526 157 728 58 638 b 328 321 58 360 219 347 b 522 188 429 296 522 290 b 354 78 522 140 475 78 b 142 236 176 78 149 157 l 31 236 b 354 -19 38 83 138 -19 b 633 194 515 -19 633 65 b 364 421 633 369 490 390 z "},"ś":{"ha":665,"x_min":0,"x_max":0,"o":"m 344 1007 l 285 831 l 375 831 l 476 1007 z m 364 421 b 169 535 265 444 169 451 b 324 631 169 590 224 631 b 494 506 457 631 483 560 l 606 506 b 324 728 594 628 500 728 b 58 526 157 728 58 638 b 328 321 58 360 219 347 b 522 188 429 296 522 290 b 354 78 522 140 475 78 b 142 236 176 78 149 157 l 31 236 b 354 -19 38 83 138 -19 b 633 194 515 -19 633 65 b 364 421 633 369 490 390 z "},"š":{"ha":665,"x_min":0,"x_max":0,"o":"m 142 1007 l 269 831 l 394 831 l 522 1007 l 411 1007 l 333 890 l 331 890 l 253 1007 z m 364 421 b 169 535 265 444 169 451 b 324 631 169 590 224 631 b 494 506 457 631 483 560 l 606 506 b 324 728 594 628 500 728 b 58 526 157 728 58 638 b 328 321 58 360 219 347 b 522 188 429 296 522 290 b 354 78 522 140 475 78 b 142 236 176 78 149 157 l 31 236 b 354 -19 38 83 138 -19 b 633 194 515 -19 633 65 b 364 421 633 369 490 390 z "},"ş":{"ha":665,"x_min":0,"x_max":0,"o":"m 361 -19 b 633 194 519 -17 633 67 b 364 421 633 369 490 390 b 169 535 265 444 169 451 b 324 631 169 590 224 631 b 494 506 457 631 483 560 l 606 506 b 324 728 594 628 500 728 b 58 526 157 728 58 638 b 328 321 58 360 219 347 b 522 188 429 296 522 290 b 354 78 522 140 475 78 b 142 236 176 78 149 157 l 31 236 b 294 -17 38 99 119 1 l 221 -112 l 238 -139 b 293 -129 250 -133 278 -129 b 363 -167 342 -129 363 -140 b 286 -218 363 -196 332 -218 b 182 -197 243 -218 215 -210 l 153 -232 b 301 -272 186 -256 244 -272 b 446 -168 374 -272 446 -235 b 311 -85 446 -96 365 -76 l 311 -82 z "},"ș":{"ha":665,"x_min":0,"x_max":0,"o":"m 364 421 b 169 535 265 444 169 451 b 324 631 169 590 224 631 b 494 506 457 631 483 560 l 606 506 b 324 728 594 628 500 728 b 58 526 157 728 58 638 b 328 321 58 360 219 347 b 522 188 429 296 522 290 b 354 78 522 140 475 78 b 142 236 176 78 149 157 l 31 236 b 354 -19 38 83 138 -19 b 633 194 515 -19 633 65 b 364 421 633 369 490 390 z m 339 -225 b 269 -310 339 -276 313 -300 l 269 -365 b 408 -200 378 -346 408 -260 b 328 -82 408 -131 382 -82 b 256 -158 289 -82 256 -112 b 339 -225 256 -219 296 -239 z "},"ß":{"ha":708,"x_min":0,"x_max":0,"o":"m 188 700 b 369 915 188 822 219 915 b 519 756 472 915 519 833 b 322 599 519 644 415 599 l 285 599 l 285 501 l 326 501 b 561 269 415 501 561 461 b 271 97 561 132 451 29 l 271 0 b 415 -19 322 -14 357 -19 b 672 269 565 -19 672 107 b 467 549 672 429 586 511 l 467 551 b 631 769 556 590 631 650 b 369 1013 631 925 503 1013 b 76 728 178 1013 76 904 l 76 0 l 188 0 z "},"t":{"ha":425,"x_min":0,"x_max":0,"o":"m 385 611 l 385 708 l 246 708 l 246 944 l 135 944 l 135 708 l 31 708 l 31 611 l 135 611 l 135 174 b 301 -8 135 29 207 -8 b 385 0 331 -8 360 -6 l 385 97 b 246 185 290 90 246 104 l 246 611 z "},"ŧ":{"ha":425,"x_min":0,"x_max":0,"o":"m 385 611 l 385 708 l 246 708 l 246 944 l 135 944 l 135 708 l 31 708 l 31 611 l 135 611 l 135 482 l 31 482 l 31 385 l 135 385 l 135 174 b 301 -8 135 29 207 -8 b 385 0 331 -8 360 -6 l 385 97 b 246 185 290 90 246 104 l 246 385 l 385 385 l 385 482 l 246 482 l 246 611 z "},"ť":{"ha":458,"x_min":0,"x_max":0,"o":"m 397 1069 b 317 990 344 1069 317 1036 b 419 914 317 936 358 900 b 328 833 419 876 368 840 l 328 783 b 483 953 442 796 483 889 b 397 1069 483 1021 454 1069 z m 246 944 l 135 944 l 135 708 l 31 708 l 31 611 l 135 611 l 135 174 b 301 -8 135 29 207 -8 b 385 0 331 -8 360 -6 l 385 97 b 246 185 290 90 246 104 l 246 611 l 385 611 l 385 708 l 246 708 z "},"ţ":{"ha":425,"x_min":0,"x_max":0,"o":"m 264 -79 l 264 -76 l 319 -8 b 385 0 342 -7 365 -4 l 385 97 b 246 185 290 90 246 104 l 246 611 l 385 611 l 385 708 l 246 708 l 246 944 l 135 944 l 135 708 l 31 708 l 31 611 l 135 611 l 135 174 b 253 -4 135 56 183 8 l 174 -107 l 190 -133 b 246 -124 203 -128 231 -124 b 315 -161 294 -124 315 -135 b 239 -212 315 -190 285 -212 b 135 -192 196 -212 168 -204 l 106 -226 b 254 -267 139 -250 197 -267 b 399 -162 326 -267 399 -229 b 264 -79 399 -90 318 -71 z "},"ț":{"ha":425,"x_min":0,"x_max":0,"o":"m 385 611 l 385 708 l 246 708 l 246 944 l 135 944 l 135 708 l 31 708 l 31 611 l 135 611 l 135 174 b 301 -8 135 29 207 -8 b 385 0 331 -8 360 -6 l 385 97 b 246 185 290 90 246 104 l 246 611 z m 281 -76 b 208 -153 242 -76 208 -107 b 292 -219 208 -214 249 -233 b 222 -304 292 -271 265 -294 l 222 -360 b 361 -194 331 -340 361 -254 b 281 -76 361 -125 335 -76 z "},"u":{"ha":733,"x_min":0,"x_max":0,"o":"m 546 708 l 546 267 b 338 78 546 157 463 78 b 183 242 226 78 183 150 l 183 708 l 72 708 l 72 214 b 310 -19 72 51 181 -19 b 543 85 431 -19 506 35 l 546 85 l 546 0 l 657 0 l 657 708 z "},"ú":{"ha":733,"x_min":0,"x_max":0,"o":"m 510 1007 l 378 1007 l 318 831 l 408 831 z m 546 708 l 546 267 b 338 78 546 157 463 78 b 183 242 226 78 183 150 l 183 708 l 72 708 l 72 214 b 310 -19 72 51 181 -19 b 543 85 431 -19 506 35 l 546 85 l 546 0 l 657 0 l 657 708 z "},"û":{"ha":733,"x_min":0,"x_max":0,"o":"m 364 947 l 367 947 l 444 831 l 556 831 l 428 1007 l 303 1007 l 175 831 l 286 831 z m 546 708 l 546 267 b 338 78 546 157 463 78 b 183 242 226 78 183 150 l 183 708 l 72 708 l 72 214 b 310 -19 72 51 181 -19 b 543 85 431 -19 506 35 l 546 85 l 546 0 l 657 0 l 657 708 z "},"ü":{"ha":733,"x_min":0,"x_max":0,"o":"m 261 868 b 331 936 306 868 331 900 b 261 1006 331 974 306 1006 b 192 936 217 1006 192 974 b 261 868 192 900 217 868 z m 469 868 b 539 936 514 868 539 900 b 469 1006 539 974 514 1006 b 400 936 425 1006 400 974 b 469 868 400 900 425 868 z m 546 708 l 546 267 b 338 78 546 157 463 78 b 183 242 226 78 183 150 l 183 708 l 72 708 l 72 214 b 310 -19 72 51 181 -19 b 543 85 431 -19 506 35 l 546 85 l 546 0 l 657 0 l 657 708 z "},"ù":{"ha":733,"x_min":0,"x_max":0,"o":"m 413 831 l 353 1007 l 221 1007 l 322 831 z m 546 708 l 546 267 b 338 78 546 157 463 78 b 183 242 226 78 183 150 l 183 708 l 72 708 l 72 214 b 310 -19 72 51 181 -19 b 543 85 431 -19 506 35 l 546 85 l 546 0 l 657 0 l 657 708 z "},"ű":{"ha":733,"x_min":0,"x_max":0,"o":"m 404 1007 l 272 1007 l 213 831 l 303 831 z m 601 1007 l 469 1007 l 410 831 l 500 831 z m 546 708 l 546 267 b 338 78 546 157 463 78 b 183 242 226 78 183 150 l 183 708 l 72 708 l 72 214 b 310 -19 72 51 181 -19 b 543 85 431 -19 506 35 l 546 85 l 546 0 l 657 0 l 657 708 z "},"ū":{"ha":733,"x_min":0,"x_max":0,"o":"m 544 972 l 186 972 l 186 875 l 544 875 z m 546 708 l 546 267 b 338 78 546 157 463 78 b 183 242 226 78 183 150 l 183 708 l 72 708 l 72 214 b 310 -19 72 51 181 -19 b 543 85 431 -19 506 35 l 546 85 l 546 0 l 657 0 l 657 708 z "},"ų":{"ha":733,"x_min":0,"x_max":0,"o":"m 617 -162 b 565 -119 589 -162 565 -147 b 657 0 565 -89 597 -47 l 657 708 l 546 708 l 546 267 b 338 78 546 157 463 78 b 183 242 226 78 183 150 l 183 708 l 72 708 l 72 214 b 310 -19 72 51 181 -19 b 543 85 431 -19 506 35 l 546 85 l 546 0 l 574 0 b 468 -143 524 -21 468 -78 b 594 -246 468 -204 511 -246 b 685 -232 625 -246 658 -240 l 685 -149 b 617 -162 665 -157 644 -162 z "},"ů":{"ha":733,"x_min":0,"x_max":0,"o":"m 364 810 b 486 931 431 810 486 858 b 364 1053 486 1001 431 1053 b 243 931 299 1053 243 1001 b 364 810 243 858 299 810 z m 364 997 b 429 931 397 997 429 971 b 364 865 429 890 397 865 b 300 931 331 865 300 890 b 364 997 300 971 331 997 z m 546 708 l 546 267 b 338 78 546 157 463 78 b 183 242 226 78 183 150 l 183 708 l 72 708 l 72 214 b 310 -19 72 51 181 -19 b 543 85 431 -19 506 35 l 546 85 l 546 0 l 657 0 l 657 708 z "},"v":{"ha":640,"x_min":0,"x_max":0,"o":"m 3 708 l 257 0 l 383 0 l 638 708 l 517 708 l 321 111 l 319 111 l 124 708 z "},"w":{"ha":1019,"x_min":0,"x_max":0,"o":"m 6 708 l 232 0 l 350 0 l 507 585 l 510 585 l 669 0 l 788 0 l 1014 708 l 892 708 l 731 121 l 728 121 l 568 708 l 450 708 l 292 121 l 289 121 l 128 708 z "},"ẃ":{"ha":1019,"x_min":0,"x_max":0,"o":"m 522 1007 l 463 831 l 553 831 l 654 1007 z m 6 708 l 232 0 l 350 0 l 507 585 l 510 585 l 669 0 l 788 0 l 1014 708 l 892 708 l 731 121 l 728 121 l 568 708 l 450 708 l 292 121 l 289 121 l 128 708 z "},"ŵ":{"ha":1019,"x_min":0,"x_max":0,"o":"m 319 831 l 431 831 l 508 947 l 511 947 l 589 831 l 700 831 l 572 1007 l 447 1007 z m 6 708 l 232 0 l 350 0 l 507 585 l 510 585 l 669 0 l 788 0 l 1014 708 l 892 708 l 731 121 l 728 121 l 568 708 l 450 708 l 292 121 l 289 121 l 128 708 z "},"ẅ":{"ha":1019,"x_min":0,"x_max":0,"o":"m 336 936 b 406 868 336 900 361 868 b 475 936 450 868 475 900 b 406 1006 475 974 450 1006 b 336 936 361 1006 336 974 z m 544 936 b 614 868 544 900 569 868 b 683 936 658 868 683 900 b 614 1006 683 974 658 1006 b 544 936 569 1006 544 974 z m 6 708 l 232 0 l 350 0 l 507 585 l 510 585 l 669 0 l 788 0 l 1014 708 l 892 708 l 731 121 l 728 121 l 568 708 l 450 708 l 292 121 l 289 121 l 128 708 z "},"ẁ":{"ha":1019,"x_min":0,"x_max":0,"o":"m 497 1007 l 365 1007 l 467 831 l 557 831 z m 6 708 l 232 0 l 350 0 l 507 585 l 510 585 l 669 0 l 788 0 l 1014 708 l 892 708 l 731 121 l 728 121 l 568 708 l 450 708 l 292 121 l 289 121 l 128 708 z "},"x":{"ha":699,"x_min":0,"x_max":0,"o":"m 32 708 l 282 363 l 8 0 l 140 0 l 347 289 l 350 289 l 558 0 l 690 0 l 415 363 l 665 708 l 533 708 l 350 438 l 347 438 l 164 708 z "},"y":{"ha":679,"x_min":0,"x_max":0,"o":"m 676 708 l 551 708 l 347 131 l 344 131 l 128 708 l 3 708 l 271 58 b 240 -103 299 -11 269 -71 b 99 -142 203 -143 160 -147 l 82 -142 l 82 -225 b 176 -239 100 -231 132 -239 b 374 -58 307 -239 343 -135 z "},"ý":{"ha":679,"x_min":0,"x_max":0,"o":"m 353 1007 l 293 831 l 383 831 l 485 1007 z m 676 708 l 551 708 l 347 131 l 344 131 l 128 708 l 3 708 l 271 58 b 240 -103 299 -11 269 -71 b 99 -142 203 -143 160 -147 l 82 -142 l 82 -225 b 176 -239 100 -231 132 -239 b 374 -58 307 -239 343 -135 z "},"ŷ":{"ha":679,"x_min":0,"x_max":0,"o":"m 150 831 l 261 831 l 339 947 l 342 947 l 419 831 l 531 831 l 403 1007 l 278 1007 z m 676 708 l 551 708 l 347 131 l 344 131 l 128 708 l 3 708 l 271 58 b 240 -103 299 -11 269 -71 b 99 -142 203 -143 160 -147 l 82 -142 l 82 -225 b 176 -239 100 -231 132 -239 b 374 -58 307 -239 343 -135 z "},"ÿ":{"ha":679,"x_min":0,"x_max":0,"o":"m 167 936 b 236 868 167 900 192 868 b 306 936 281 868 306 900 b 236 1006 306 974 281 1006 b 167 936 192 1006 167 974 z m 375 936 b 444 868 375 900 400 868 b 514 936 489 868 514 900 b 444 1006 514 974 489 1006 b 375 936 400 1006 375 974 z m 676 708 l 551 708 l 347 131 l 344 131 l 128 708 l 3 708 l 271 58 b 240 -103 299 -11 269 -71 b 99 -142 203 -143 160 -147 l 82 -142 l 82 -225 b 176 -239 100 -231 132 -239 b 374 -58 307 -239 343 -135 z "},"ỳ":{"ha":679,"x_min":0,"x_max":0,"o":"m 328 1007 l 196 1007 l 297 831 l 388 831 z m 676 708 l 551 708 l 347 131 l 344 131 l 128 708 l 3 708 l 271 58 b 240 -103 299 -11 269 -71 b 99 -142 203 -143 160 -147 l 82 -142 l 82 -225 b 176 -239 100 -231 132 -239 b 374 -58 307 -239 343 -135 z "},"z":{"ha":654,"x_min":0,"x_max":0,"o":"m 47 83 l 47 0 l 619 0 l 619 97 l 192 97 l 192 100 l 604 642 l 604 708 l 71 708 l 71 611 l 447 611 l 447 608 z "},"ź":{"ha":654,"x_min":0,"x_max":0,"o":"m 351 1007 l 292 831 l 382 831 l 483 1007 z m 47 83 l 47 0 l 619 0 l 619 97 l 192 97 l 192 100 l 604 642 l 604 708 l 71 708 l 71 611 l 447 611 l 447 608 z "},"ž":{"ha":654,"x_min":0,"x_max":0,"o":"m 149 1007 l 276 831 l 401 831 l 529 1007 l 418 1007 l 340 890 l 338 890 l 260 1007 z m 47 83 l 47 0 l 619 0 l 619 97 l 192 97 l 192 100 l 604 642 l 604 708 l 71 708 l 71 611 l 447 611 l 447 608 z "},"ż":{"ha":654,"x_min":0,"x_max":0,"o":"m 269 936 b 339 868 269 900 294 868 b 408 936 383 868 408 900 b 339 1006 408 974 383 1006 b 269 936 294 1006 269 974 z m 47 83 l 47 0 l 619 0 l 619 97 l 192 97 l 192 100 l 604 642 l 604 708 l 71 708 l 71 611 l 447 611 l 447 608 z "},"⁄":{"ha":343,"x_min":0,"x_max":0,"o":"m 493 993 l -247 0 l -150 0 l 590 993 z "},"*":{"ha":511,"x_min":0,"x_max":0,"o":"m 450 821 l 425 885 l 293 842 l 293 993 l 218 993 l 218 842 l 86 885 l 61 821 l 193 775 l 110 654 l 169 613 l 256 740 l 342 613 l 401 654 l 318 775 z "},"\\":{"ha":540,"x_min":0,"x_max":0,"o":"m 22 993 l 407 0 l 518 0 l 133 993 z "},"·":{"ha":275,"x_min":0,"x_max":0,"o":"m 142 354 b 218 431 185 354 218 383 b 142 507 218 476 185 507 b 65 431 99 507 65 476 b 142 354 65 383 99 354 z "},"•":{"ha":428,"x_min":0,"x_max":0,"o":"m 214 278 b 381 444 317 278 381 353 b 214 611 381 536 317 611 b 47 444 111 611 47 536 b 214 278 47 353 111 278 z "},":":{"ha":283,"x_min":0,"x_max":0,"o":"m 142 414 b 218 490 185 414 218 443 b 142 567 218 536 185 567 b 65 490 99 567 65 536 b 142 414 65 443 99 414 z m 142 -10 b 218 67 185 -10 218 19 b 142 143 218 113 185 143 b 65 67 99 143 65 113 b 142 -10 65 19 99 -10 z "},",":{"ha":275,"x_min":0,"x_max":0,"o":"m 144 -8 b 75 -107 144 -60 118 -97 l 75 -176 b 214 35 183 -157 214 -39 b 136 143 214 100 188 143 b 61 63 94 143 61 115 b 144 -8 61 1 101 -22 z "},"…":{"ha":719,"x_min":0,"x_max":0,"o":"m 138 -10 b 214 67 181 -10 214 19 b 138 143 214 113 181 143 b 61 67 94 143 61 113 b 138 -10 61 19 94 -10 z m 360 -10 b 436 67 403 -10 436 19 b 360 143 436 113 403 143 b 283 67 317 143 283 113 b 360 -10 283 19 317 -10 z m 582 -10 b 658 67 625 -10 658 19 b 582 143 658 113 625 143 b 506 67 539 143 506 113 b 582 -10 506 19 539 -10 z "},"!":{"ha":331,"x_min":0,"x_max":0,"o":"m 110 993 l 110 708 l 138 256 l 207 256 l 235 708 l 235 993 z m 172 -10 b 249 67 215 -10 249 19 b 172 143 249 113 215 143 b 96 67 129 143 96 113 b 172 -10 96 19 129 -10 z "},"¡":{"ha":344,"x_min":0,"x_max":0,"o":"m 172 822 b 96 746 129 822 96 793 b 172 669 96 700 129 669 b 249 746 215 669 249 700 b 172 822 249 793 215 822 z m 110 -181 l 235 -181 l 235 104 l 207 557 l 138 557 l 110 104 z "},"#":{"ha":804,"x_min":0,"x_max":0,"o":"m 743 599 l 761 696 l 617 696 l 668 960 l 569 960 l 518 696 l 354 696 l 406 960 l 308 960 l 257 696 l 103 696 l 86 599 l 238 599 l 196 385 l 60 385 l 43 288 l 176 288 l 119 0 l 217 0 l 274 288 l 438 288 l 382 0 l 479 0 l 536 288 l 703 288 l 718 385 l 556 385 l 597 599 z m 457 385 l 293 385 l 335 599 l 499 599 z "},".":{"ha":275,"x_min":0,"x_max":0,"o":"m 138 -10 b 214 67 181 -10 214 19 b 138 143 214 113 181 143 b 61 67 94 143 61 113 b 138 -10 61 19 94 -10 z "},"?":{"ha":700,"x_min":0,"x_max":0,"o":"m 149 671 b 360 901 149 844 238 901 b 533 758 467 901 533 840 b 406 569 533 656 471 628 b 242 254 324 497 242 415 l 367 254 b 513 525 367 411 436 463 b 658 758 589 588 658 635 b 360 1013 658 907 529 1013 b 24 671 131 1013 24 868 z m 304 -10 b 381 67 347 -10 381 19 b 304 143 381 113 347 143 b 228 67 261 143 228 113 b 304 -10 228 19 261 -10 z "},"¿":{"ha":700,"x_min":0,"x_max":0,"o":"m 396 821 b 319 744 353 821 319 792 b 396 668 319 699 353 668 b 472 744 439 668 472 699 b 396 821 472 792 439 821 z m 551 140 b 340 -90 551 -33 463 -90 b 167 53 233 -90 167 -29 b 294 242 167 156 229 183 b 458 557 376 314 458 396 l 333 557 b 188 286 333 400 264 349 b 42 53 111 224 42 176 b 340 -201 42 -96 171 -201 b 676 140 569 -201 676 -57 z "},"\"":{"ha":429,"x_min":0,"x_max":0,"o":"m 58 993 l 72 696 l 156 696 l 169 993 z m 260 993 l 274 696 l 357 696 l 371 993 z "},"'":{"ha":228,"x_min":0,"x_max":0,"o":"m 58 993 l 72 696 l 156 696 l 169 993 z "},";":{"ha":283,"x_min":0,"x_max":0,"o":"m 142 414 b 218 490 185 414 218 443 b 142 567 218 536 185 567 b 65 490 99 567 65 536 b 142 414 65 443 99 414 z m 149 -8 b 79 -107 149 -60 122 -97 l 79 -176 b 218 35 188 -157 218 -39 b 140 143 218 100 192 143 b 65 63 99 143 65 115 b 149 -8 65 1 106 -22 z "},"/":{"ha":563,"x_min":0,"x_max":0,"o":"m 518 993 l 407 993 l 22 0 l 133 0 z "},"_":{"ha":567,"x_min":0,"x_max":0,"o":"m -3 -119 l -3 -231 l 569 -231 l 569 -119 z "},"{":{"ha":411,"x_min":0,"x_max":0,"o":"m 33 499 l 33 388 b 114 256 101 388 114 326 l 114 113 b 343 -162 114 -121 186 -162 l 369 -162 l 369 -51 l 343 -51 b 239 83 276 -51 239 -24 l 239 292 b 157 442 239 372 204 414 l 157 444 b 239 593 204 472 239 514 l 239 808 b 343 938 239 910 276 938 l 369 938 l 369 1049 l 343 1049 b 114 779 186 1049 114 1013 l 114 629 b 33 499 114 558 101 497 z "},"}":{"ha":411,"x_min":0,"x_max":0,"o":"m 378 499 b 297 629 310 497 297 558 l 297 779 b 68 1049 297 1013 225 1049 l 42 1049 l 42 938 l 68 938 b 172 808 135 938 172 910 l 172 593 b 254 444 172 514 207 472 l 254 442 b 172 292 207 414 172 372 l 172 83 b 68 -51 172 -24 135 -51 l 42 -51 l 42 -162 l 68 -162 b 297 113 225 -162 297 -121 l 297 256 b 378 388 297 326 310 388 z "},"[":{"ha":411,"x_min":0,"x_max":0,"o":"m 107 1049 l 107 -162 l 369 -162 l 369 -51 l 232 -51 l 232 938 l 369 938 l 369 1049 z "},"]":{"ha":411,"x_min":0,"x_max":0,"o":"m 304 1049 l 42 1049 l 42 938 l 179 938 l 179 -51 l 42 -51 l 42 -162 l 304 -162 z "},"(":{"ha":422,"x_min":0,"x_max":0,"o":"m 296 1049 b 99 440 188 908 99 700 b 296 -162 99 189 188 -22 l 393 -162 b 224 440 299 6 224 189 b 393 1049 224 697 299 881 z "},")":{"ha":422,"x_min":0,"x_max":0,"o":"m 128 1049 l 31 1049 b 200 440 125 881 200 697 b 31 -162 200 189 125 6 l 128 -162 b 325 440 236 -22 325 189 b 128 1049 325 700 236 908 z "},"—":{"ha":1389,"x_min":0,"x_max":0,"o":"m 139 408 l 139 297 l 1250 297 l 1250 408 z "},"–":{"ha":694,"x_min":0,"x_max":0,"o":"m 0 410 l 0 299 l 694 299 l 694 410 z "},"-":{"ha":478,"x_min":0,"x_max":0,"o":"m 53 410 l 53 299 l 425 299 l 425 410 z "},"«":{"ha":533,"x_min":0,"x_max":0,"o":"m 42 288 l 232 129 l 232 240 l 100 349 l 100 351 l 232 460 l 232 571 l 42 413 z m 301 288 l 492 129 l 492 240 l 360 349 l 360 351 l 492 460 l 492 571 l 301 413 z "},"»":{"ha":533,"x_min":0,"x_max":0,"o":"m 232 288 l 232 413 l 42 571 l 42 460 l 174 351 l 174 349 l 42 240 l 42 129 z m 492 288 l 492 413 l 301 571 l 301 460 l 433 351 l 433 349 l 301 240 l 301 129 z "},"‹":{"ha":342,"x_min":0,"x_max":0,"o":"m 69 288 l 272 129 l 272 240 l 128 349 l 128 351 l 272 460 l 272 571 l 69 413 z "},"›":{"ha":342,"x_min":0,"x_max":0,"o":"m 272 288 l 272 413 l 69 571 l 69 460 l 214 351 l 214 349 l 69 240 l 69 129 z "},"„":{"ha":475,"x_min":0,"x_max":0,"o":"m 142 -8 b 72 -107 142 -60 115 -97 l 72 -176 b 211 35 181 -157 211 -39 b 133 143 211 100 185 143 b 58 63 92 143 58 115 b 142 -8 58 1 99 -22 z m 347 -8 b 278 -107 347 -60 321 -97 l 278 -176 b 417 35 386 -157 417 -39 b 339 143 417 100 390 143 b 264 63 297 143 264 115 b 347 -8 264 1 304 -22 z "},"“":{"ha":474,"x_min":0,"x_max":0,"o":"m 128 828 b 197 926 128 879 154 917 l 197 996 b 58 785 89 976 58 858 b 136 676 58 719 85 676 b 211 757 178 676 211 704 b 128 828 211 818 171 842 z m 332 828 b 401 926 332 879 358 917 l 401 996 b 263 785 293 976 263 858 b 340 676 263 719 289 676 b 415 757 382 676 415 704 b 332 828 415 818 375 842 z "},"”":{"ha":474,"x_min":0,"x_max":0,"o":"m 142 851 b 72 753 142 800 115 763 l 72 683 b 211 894 181 703 211 821 b 133 1003 211 960 185 1003 b 58 922 92 1003 58 975 b 142 851 58 861 99 838 z m 346 851 b 276 753 346 800 319 763 l 276 683 b 415 894 385 703 415 821 b 338 1003 415 960 389 1003 b 263 922 296 1003 263 975 b 346 851 263 861 303 838 z "},"‘":{"ha":267,"x_min":0,"x_max":0,"o":"m 128 828 b 197 926 128 879 154 917 l 197 996 b 58 785 89 976 58 858 b 136 676 58 719 85 676 b 211 757 178 676 211 704 b 128 828 211 818 171 842 z "},"’":{"ha":269,"x_min":0,"x_max":0,"o":"m 142 851 b 72 753 142 800 115 763 l 72 683 b 211 894 181 703 211 821 b 133 1003 211 960 185 1003 b 58 922 92 1003 58 975 b 142 851 58 861 99 838 z "},"‚":{"ha":269,"x_min":0,"x_max":0,"o":"m 142 -8 b 72 -107 142 -60 115 -97 l 72 -176 b 211 35 181 -157 211 -39 b 133 143 211 100 185 143 b 58 63 92 143 58 115 b 142 -8 58 1 99 -22 z "}," ":{"ha":278,"x_min":0,"x_max":0,"o":""},"¢":{"ha":721,"x_min":0,"x_max":0,"o":"m 411 79 l 411 629 b 579 453 529 615 574 525 l 690 453 b 411 726 675 601 568 713 l 411 821 l 328 821 l 328 725 b 36 354 150 701 36 557 b 328 -17 36 151 150 7 l 328 -118 l 411 -118 l 411 -18 b 690 261 569 -4 681 110 l 579 261 b 411 79 574 183 531 93 z m 147 354 b 328 625 147 474 199 600 l 328 83 b 147 354 199 108 147 235 z "},"¤":{"ha":675,"x_min":0,"x_max":0,"o":"m 607 478 b 558 640 607 543 589 597 l 650 731 l 589 789 l 500 700 b 338 754 453 736 394 754 b 174 701 281 754 222 736 l 85 790 l 25 732 l 115 642 b 67 478 85 599 67 543 b 115 315 67 413 85 358 l 25 225 l 85 167 l 174 256 b 338 201 221 219 279 201 b 501 256 394 201 454 219 l 590 167 l 650 226 l 560 317 b 607 478 589 360 607 413 z m 178 478 b 338 657 178 601 247 657 b 496 478 426 657 496 601 b 338 299 496 354 426 299 b 178 478 247 299 178 354 z "},"$":{"ha":804,"x_min":0,"x_max":0,"o":"m 763 246 b 453 542 763 440 631 486 l 453 853 b 610 657 542 832 597 769 l 735 657 b 453 965 722 839 604 942 l 453 1051 l 369 1051 l 369 971 b 64 710 179 965 64 863 b 369 444 64 539 239 481 l 369 96 b 147 319 225 114 160 196 l 22 319 b 369 -17 35 114 183 4 l 369 -118 l 453 -118 l 453 -19 b 763 246 663 -11 763 106 z m 189 724 b 369 860 189 803 258 856 l 369 568 b 189 724 268 600 189 633 z m 453 92 l 453 419 b 638 246 585 378 638 340 b 453 92 638 161 582 99 z "},"€":{"ha":868,"x_min":0,"x_max":0,"o":"m 492 92 b 256 351 350 92 279 206 l 531 351 l 531 435 l 247 435 b 246 476 246 449 246 463 b 247 514 246 489 246 501 l 531 514 l 531 597 l 254 597 b 492 860 278 744 349 860 b 701 638 643 860 683 732 l 826 638 b 492 971 803 826 693 971 b 129 597 294 971 163 826 l 42 597 l 42 514 l 122 514 b 121 476 121 501 121 489 b 122 435 121 463 121 449 l 42 435 l 42 351 l 129 351 b 492 -19 164 124 294 -19 b 826 344 694 -19 804 125 l 701 344 b 492 92 693 219 644 92 z "},"£":{"ha":765,"x_min":0,"x_max":0,"o":"m 694 165 b 539 103 644 128 603 103 b 322 165 458 103 419 165 b 186 122 258 165 218 138 l 185 125 b 297 363 253 174 297 260 b 296 390 297 372 297 382 l 478 390 l 478 501 l 263 501 b 210 682 239 557 210 610 b 401 860 210 788 278 860 b 594 644 540 860 594 779 l 719 644 b 401 971 719 829 628 971 b 85 692 168 971 85 806 b 133 501 85 608 111 553 l 57 501 l 57 390 l 171 390 b 172 369 172 383 172 376 b 43 92 172 244 118 140 l 110 0 b 279 65 182 46 221 65 b 553 -19 372 65 432 -19 b 747 64 640 -19 694 24 z "},"¥":{"ha":781,"x_min":0,"x_max":0,"o":"m 767 953 l 632 953 l 392 494 l 389 494 l 149 953 l 14 953 l 311 424 l 85 424 l 85 340 l 328 340 l 328 261 l 85 261 l 85 178 l 328 178 l 328 0 l 453 0 l 453 178 l 696 178 l 696 261 l 453 261 l 453 340 l 696 340 l 696 424 l 469 424 z "},"+":{"ha":778,"x_min":0,"x_max":0,"o":"m 333 397 l 333 129 l 444 129 l 444 397 l 704 397 l 704 507 l 444 507 l 444 775 l 333 775 l 333 507 l 74 507 l 74 397 z "},"−":{"ha":778,"x_min":0,"x_max":0,"o":"m 74 519 l 74 408 l 704 408 l 704 519 z "},"×":{"ha":778,"x_min":0,"x_max":0,"o":"m 678 661 l 599 740 l 389 531 l 179 740 l 100 661 l 310 451 l 100 242 l 179 163 l 389 372 l 599 163 l 678 242 l 468 451 z "},"÷":{"ha":778,"x_min":0,"x_max":0,"o":"m 389 607 b 472 683 442 607 472 635 b 389 760 472 732 442 760 b 306 683 335 760 306 732 b 389 607 306 635 335 607 z m 74 399 l 704 399 l 704 510 l 74 510 z m 389 146 b 472 222 442 146 472 174 b 389 299 472 271 442 299 b 306 222 335 299 306 271 b 389 146 306 174 335 146 z "},"=":{"ha":778,"x_min":0,"x_max":0,"o":"m 74 601 l 74 490 l 704 490 l 704 601 z m 74 381 l 74 269 l 704 269 l 704 381 z "},"≠":{"ha":778,"x_min":0,"x_max":0,"o":"m 704 490 l 704 601 l 521 601 l 583 735 l 486 735 l 424 601 l 74 601 l 74 490 l 371 490 l 319 381 l 74 381 l 74 269 l 268 269 l 196 117 l 293 117 l 365 269 l 704 269 l 704 381 l 417 381 l 468 490 z "},">":{"ha":710,"x_min":0,"x_max":0,"o":"m 75 135 l 640 369 l 640 494 l 75 731 l 75 619 l 550 433 l 550 431 l 75 246 z "},"<":{"ha":743,"x_min":0,"x_max":0,"o":"m 635 135 l 635 246 l 160 431 l 160 433 l 635 619 l 635 731 l 69 494 l 69 369 z "},"≥":{"ha":710,"x_min":0,"x_max":0,"o":"m 75 149 l 640 376 l 640 501 l 75 731 l 75 619 l 550 440 l 550 438 l 75 260 z m 75 97 l 75 0 l 640 0 l 640 97 z "},"≤":{"ha":743,"x_min":0,"x_max":0,"o":"m 635 149 l 635 260 l 160 438 l 160 440 l 635 619 l 635 731 l 69 501 l 69 376 z m 635 97 l 69 97 l 69 0 l 635 0 z "},"±":{"ha":778,"x_min":0,"x_max":0,"o":"m 74 426 l 333 426 l 333 186 l 444 186 l 444 426 l 704 426 l 704 536 l 444 536 l 444 775 l 333 775 l 333 536 l 74 536 z m 74 97 l 74 0 l 704 0 l 704 97 z "},"≈":{"ha":778,"x_min":0,"x_max":0,"o":"m 546 468 b 704 628 672 468 704 561 l 607 628 b 529 565 607 583 589 565 b 208 614 426 565 311 614 b 50 454 82 614 50 521 l 147 454 b 225 517 147 499 165 517 b 546 468 328 517 444 468 z m 546 250 b 704 410 672 250 704 343 l 607 410 b 529 347 607 365 589 347 b 208 396 426 347 311 396 b 50 236 82 396 50 303 l 147 236 b 225 299 147 281 165 299 b 546 250 328 299 444 250 z "},"~":{"ha":546,"x_min":0,"x_max":0,"o":"m 50 375 l 147 375 b 200 435 147 399 158 435 b 372 375 244 435 292 375 b 496 539 450 375 496 444 l 399 539 b 346 479 399 515 388 479 b 174 539 301 479 256 539 b 50 375 96 539 50 469 z "},"¬":{"ha":778,"x_min":0,"x_max":0,"o":"m 538 442 l 538 200 l 663 200 l 663 553 l 88 553 l 88 442 z "},"∅":{"ha":1107,"x_min":0,"x_max":0,"o":"m 940 817 l 1029 906 l 981 956 l 890 865 b 554 979 800 938 683 979 b 42 479 268 979 42 776 b 167 142 42 343 89 228 l 79 54 l 128 6 l 217 94 b 554 -19 307 22 425 -19 b 1065 479 840 -19 1065 182 b 940 817 1065 615 1018 731 z m 111 479 b 554 910 111 735 310 910 b 839 814 663 910 763 875 l 218 193 b 111 479 151 267 111 365 z m 554 50 b 268 146 446 50 346 85 l 890 767 b 996 479 956 693 996 594 b 554 50 996 225 797 50 z "},"∞":{"ha":993,"x_min":0,"x_max":0,"o":"m 49 422 b 246 182 49 258 146 182 b 496 346 371 182 443 285 l 499 346 b 747 182 551 285 622 182 b 944 422 847 182 944 258 b 747 664 944 588 847 664 b 499 514 622 664 551 575 l 496 514 b 246 664 443 575 371 664 b 49 422 146 664 49 588 z m 269 294 b 160 424 206 294 160 333 b 269 554 160 514 206 554 b 440 424 346 554 401 472 b 269 294 401 375 346 294 z m 724 294 b 553 424 647 294 592 375 b 724 554 592 472 647 554 b 833 424 788 554 833 514 b 724 294 833 333 788 294 z "},"∫":{"ha":469,"x_min":0,"x_max":0,"o":"m 282 -11 l 282 749 b 453 901 282 846 317 929 l 453 1013 b 354 1026 432 1019 399 1026 b 157 794 219 1026 157 926 l 157 35 b -14 -118 157 -62 122 -146 l -14 -229 b 85 -243 7 -236 40 -243 b 282 -11 219 -243 282 -143 z "},"∏":{"ha":976,"x_min":0,"x_max":0,"o":"m 99 993 l 99 -139 l 224 -139 l 224 882 l 753 882 l 753 -139 l 878 -139 l 878 993 z "},"∑":{"ha":856,"x_min":0,"x_max":0,"o":"m 56 -24 l 56 -139 l 803 -139 l 803 -28 l 192 -28 l 192 -25 l 546 408 l 546 478 l 201 879 l 201 882 l 789 882 l 789 993 l 56 993 l 56 879 l 440 440 l 440 438 z "},"√":{"ha":804,"x_min":0,"x_max":0,"o":"m 19 436 l 19 325 l 122 325 l 288 -139 l 399 -139 l 790 993 l 665 993 l 344 17 l 342 17 l 207 436 z "},"∂":{"ha":763,"x_min":0,"x_max":0,"o":"m 576 567 b 381 654 531 626 461 654 b 61 301 192 654 61 485 b 344 -19 61 103 175 -19 b 701 439 599 -19 701 203 b 228 993 701 722 564 979 l 228 882 b 576 569 385 868 540 789 z m 361 92 b 186 289 268 92 186 168 b 400 543 186 422 271 543 b 576 344 506 543 576 450 b 361 92 576 210 493 92 z "},"%":{"ha":1129,"x_min":0,"x_max":0,"o":"m 257 429 b 481 704 411 429 481 556 b 257 979 481 853 411 979 b 33 704 106 979 33 853 b 257 429 33 556 106 429 z m 865 960 l 768 960 l 264 0 l 361 0 z m 257 526 b 131 704 172 526 131 599 b 257 882 131 810 172 882 b 383 704 342 882 383 810 b 257 526 383 599 342 526 z m 872 -19 b 1096 256 1026 -19 1096 107 b 872 531 1096 404 1026 531 b 649 256 721 531 649 404 b 872 -19 649 107 721 -19 z m 872 78 b 746 256 788 78 746 150 b 872 433 746 361 788 433 b 999 256 957 433 999 361 b 872 78 999 150 957 78 z "},"‰":{"ha":1629,"x_min":0,"x_max":0,"o":"m 257 429 b 481 704 411 429 481 556 b 257 979 481 853 411 979 b 33 704 106 979 33 853 b 257 429 33 556 106 429 z m 865 960 l 768 960 l 264 0 l 361 0 z m 257 526 b 131 704 172 526 131 599 b 257 882 131 810 172 882 b 383 704 342 882 383 810 b 257 526 383 599 342 526 z m 872 -19 b 1096 256 1026 -19 1096 107 b 872 531 1096 404 1026 531 b 649 256 721 531 649 404 b 872 -19 649 107 721 -19 z m 1372 -19 b 1596 256 1526 -19 1596 107 b 1372 531 1596 404 1526 531 b 1149 256 1221 531 1149 404 b 1372 -19 1149 107 1221 -19 z m 872 78 b 746 256 788 78 746 150 b 872 433 746 361 788 433 b 999 256 957 433 999 361 b 872 78 999 150 957 78 z m 1372 78 b 1246 256 1288 78 1246 150 b 1372 433 1246 361 1288 433 b 1499 256 1457 433 1499 361 b 1372 78 1499 150 1457 78 z "},"↑":{"ha":833,"x_min":0,"x_max":0,"o":"m 792 613 l 417 960 l 42 613 l 110 538 l 368 781 l 368 0 l 465 0 l 465 781 l 724 538 z "},"↗":{"ha":815,"x_min":0,"x_max":0,"o":"m 774 322 l 754 833 l 243 853 l 239 751 l 593 740 l 42 189 l 110 121 l 663 672 l 672 318 z "},"→":{"ha":1043,"x_min":0,"x_max":0,"o":"m 654 68 l 1001 443 l 654 818 l 579 750 l 822 492 l 42 492 l 42 394 l 822 394 l 579 136 z "},"↘":{"ha":815,"x_min":0,"x_max":0,"o":"m 774 572 l 672 576 l 663 222 l 110 774 l 42 706 l 593 154 l 239 143 l 243 42 l 754 61 z "},"↓":{"ha":833,"x_min":0,"x_max":0,"o":"m 792 292 l 724 367 l 465 124 l 465 904 l 368 904 l 368 124 l 110 367 l 42 292 l 417 -56 z "},"↙":{"ha":815,"x_min":0,"x_max":0,"o":"m 38 572 l 57 61 l 568 42 l 572 143 l 218 154 l 769 706 l 701 774 l 149 222 l 139 576 z "},"←":{"ha":1043,"x_min":0,"x_max":0,"o":"m 389 68 l 464 136 l 221 394 l 1001 394 l 1001 492 l 221 492 l 464 750 l 389 818 l 42 443 z "},"↖":{"ha":815,"x_min":0,"x_max":0,"o":"m 38 322 l 139 318 l 149 672 l 701 121 l 769 189 l 218 740 l 572 751 l 568 853 l 57 833 z "},"↔":{"ha":1583,"x_min":0,"x_max":0,"o":"m 1194 818 l 1119 750 l 1363 492 l 221 492 l 464 750 l 389 818 l 42 443 l 389 68 l 464 136 l 221 394 l 1363 394 l 1119 136 l 1194 68 l 1542 443 z "},"↕":{"ha":833,"x_min":0,"x_max":0,"o":"m 465 -67 l 465 913 l 724 669 l 792 744 l 417 1092 l 42 744 l 110 669 l 368 913 l 368 -67 l 110 176 l 42 101 l 417 -246 l 792 101 l 724 176 z "},"◊":{"ha":758,"x_min":0,"x_max":0,"o":"m 36 497 l 317 0 l 442 0 l 722 496 l 442 993 l 317 993 z m 382 111 l 379 111 l 161 500 l 376 882 l 379 882 l 597 492 z "},"@":{"ha":1222,"x_min":0,"x_max":0,"o":"m 932 110 b 1176 449 1035 110 1176 185 b 625 990 1176 750 964 990 b 46 410 286 990 46 725 b 611 -147 46 67 286 -147 b 894 -87 710 -147 804 -135 l 860 -8 b 611 -50 778 -42 696 -50 b 143 410 347 -50 143 136 b 625 893 143 656 332 893 b 1079 444 900 893 1079 708 b 940 207 1079 286 1024 207 b 851 360 867 207 839 265 l 896 708 l 799 708 l 783 597 l 781 597 b 583 718 756 663 676 718 b 324 400 440 718 324 592 b 556 115 324 222 426 115 b 756 222 656 115 715 157 l 758 222 b 932 110 794 151 844 110 z m 575 213 b 421 396 469 213 421 290 b 601 621 421 521 482 621 b 756 438 685 621 756 561 b 575 213 756 313 690 213 z "},"&":{"ha":815,"x_min":0,"x_max":0,"o":"m 826 0 l 679 182 b 774 469 732 271 761 375 l 663 469 b 606 272 653 400 633 332 l 403 522 b 607 783 532 600 607 671 b 374 1013 607 896 524 1014 b 140 783 214 1011 140 896 b 256 538 140 693 188 622 b 54 244 154 474 54 389 b 351 -19 54 93 161 -19 b 615 97 464 -19 550 26 l 694 0 z m 374 901 b 496 775 451 901 496 843 b 346 592 496 690 438 646 b 251 775 293 657 251 715 b 374 901 251 843 296 901 z m 351 92 b 165 244 229 92 165 165 b 311 468 165 339 222 408 l 546 182 b 351 92 497 126 433 92 z "},"¶":{"ha":763,"x_min":0,"x_max":0,"o":"m 369 465 l 369 0 l 467 0 l 467 882 l 572 882 l 572 0 l 669 0 l 669 993 l 306 993 b 40 725 129 993 40 892 b 306 465 40 558 129 465 z "},"§":{"ha":808,"x_min":0,"x_max":0,"o":"m 769 306 b 488 594 769 432 643 501 b 256 817 401 646 256 719 b 407 915 256 872 290 915 b 567 781 554 915 561 835 l 678 781 b 407 1013 672 903 597 1013 b 144 808 226 1013 144 919 b 206 647 144 743 169 690 b 39 464 97 625 39 564 b 321 175 39 324 167 269 b 553 -47 406 122 553 50 b 401 -146 553 -103 518 -146 b 242 -11 254 -146 247 -65 l 131 -11 b 401 -243 136 -133 211 -243 b 664 -39 582 -243 664 -150 b 604 121 664 25 640 76 b 769 306 707 140 769 203 z m 532 188 b 385 278 485 224 432 251 b 150 478 249 353 150 393 b 276 582 150 532 182 565 b 424 492 324 546 376 518 b 658 292 560 417 658 363 b 532 188 658 238 626 204 z "},"©":{"ha":1135,"x_min":0,"x_max":0,"o":"m 568 -22 b 1079 496 882 -22 1079 199 b 568 1015 1079 793 882 1015 b 56 496 254 1015 56 793 b 568 -22 56 199 254 -22 z m 568 33 b 125 496 296 33 125 242 b 568 960 125 751 296 960 b 1010 496 839 960 1010 751 b 568 33 1010 242 839 33 z m 736 585 l 833 585 b 565 808 819 707 722 808 b 288 496 385 808 288 678 b 576 185 288 313 390 185 b 833 410 731 185 825 286 l 736 410 b 569 282 731 371 699 282 b 385 496 424 282 385 386 b 569 711 385 607 424 711 b 736 585 699 711 731 618 z "},"®":{"ha":733,"x_min":0,"x_max":0,"o":"m 367 343 b 697 679 551 343 697 486 b 367 1015 697 872 551 1015 b 36 679 182 1015 36 872 b 367 343 36 486 182 343 z m 367 399 b 92 679 214 399 92 517 b 367 960 92 840 214 960 b 642 679 519 960 642 840 b 367 399 642 517 519 399 z m 244 504 l 303 504 l 303 649 l 364 649 b 449 504 468 649 433 519 l 511 504 l 511 507 b 443 668 493 513 522 653 l 443 669 b 507 760 482 679 507 708 b 389 861 507 822 460 861 l 244 861 z m 303 807 l 364 807 b 447 754 401 807 447 810 b 364 701 447 700 401 701 l 303 701 z "},"™":{"ha":874,"x_min":0,"x_max":0,"o":"m 169 928 l 169 610 l 247 610 l 247 928 l 372 928 l 372 993 l 44 993 l 44 928 z m 424 993 l 424 610 l 494 610 l 494 900 l 497 900 l 585 610 l 658 610 l 747 900 l 750 900 l 750 610 l 822 610 l 822 993 l 710 993 l 622 704 l 621 704 l 535 993 z "},"°":{"ha":511,"x_min":0,"x_max":0,"o":"m 256 596 b 464 804 397 596 464 711 b 256 1013 464 897 397 1013 b 47 804 113 1013 47 897 b 256 596 47 711 113 596 z m 256 679 b 131 804 178 679 131 733 b 256 929 131 875 178 929 b 381 804 333 929 381 875 b 256 679 381 733 333 679 z "},"|":{"ha":311,"x_min":0,"x_max":0,"o":"m 107 1033 l 107 -178 l 204 -178 l 204 1033 z "},"¦":{"ha":311,"x_min":0,"x_max":0,"o":"m 107 1033 l 107 533 l 204 533 l 204 1033 z m 107 340 l 107 -178 l 204 -178 l 204 340 z "},"†":{"ha":707,"x_min":0,"x_max":0,"o":"m 292 600 l 292 -246 l 417 -246 l 417 600 l 660 600 l 660 711 l 417 711 l 417 993 l 292 993 l 292 711 l 47 711 l 47 600 z "},"‡":{"ha":707,"x_min":0,"x_max":0,"o":"m 292 156 l 292 -246 l 417 -246 l 417 156 l 660 156 l 660 267 l 417 267 l 417 600 l 660 600 l 660 711 l 417 711 l 417 993 l 292 993 l 292 711 l 47 711 l 47 600 l 292 600 l 292 267 l 47 267 l 47 156 z "},"^":{"ha":629,"x_min":0,"x_max":0,"o":"m 260 993 l 15 611 l 140 611 l 314 892 l 315 892 l 490 611 l 614 611 l 371 993 z "},"̈":{"ha":0,"x_min":0,"x_max":0,"o":"m -389 936 b -319 868 -389 900 -364 868 b -250 936 -275 868 -250 900 b -319 1006 -250 974 -275 1006 b -389 936 -364 1006 -389 974 z m -181 936 b -111 868 -181 900 -156 868 b -42 936 -67 868 -42 900 b -111 1006 -42 974 -67 1006 b -181 936 -156 1006 -181 974 z "},"̇":{"ha":0,"x_min":0,"x_max":0,"o":"m -181 936 b -111 868 -181 900 -156 868 b -42 936 -67 868 -42 900 b -111 1006 -42 974 -67 1006 b -181 936 -156 1006 -181 974 z "},"̀":{"ha":0,"x_min":0,"x_max":0,"o":"m -101 1007 l -233 1007 l -132 831 l -42 831 z "},"́":{"ha":0,"x_min":0,"x_max":0,"o":"m -174 1007 l -233 831 l -143 831 l -42 1007 z "},"̋":{"ha":0,"x_min":0,"x_max":0,"o":"m -371 1007 l -431 831 l -340 831 l -239 1007 z m -174 1007 l -233 831 l -143 831 l -42 1007 z "},"̂":{"ha":0,"x_min":0,"x_max":0,"o":"m -422 831 l -311 831 l -233 947 l -231 947 l -153 831 l -42 831 l -169 1007 l -294 1007 z "},"̌":{"ha":0,"x_min":0,"x_max":0,"o":"m -422 1007 l -294 831 l -169 831 l -42 1007 l -153 1007 l -231 890 l -233 890 l -311 1007 z "},"̆":{"ha":0,"x_min":0,"x_max":0,"o":"m -218 825 b -42 1007 -117 825 -47 888 l -125 1007 b -218 908 -129 939 -158 908 b -311 1007 -278 908 -307 939 l -394 1007 b -218 825 -390 883 -317 825 z "},"̊":{"ha":0,"x_min":0,"x_max":0,"o":"m -164 810 b -42 931 -97 810 -42 858 b -164 1053 -42 1001 -97 1053 b -285 931 -229 1053 -285 1001 b -164 810 -285 858 -229 810 z m -164 865 b -228 931 -197 865 -228 890 b -164 997 -228 971 -197 997 b -99 931 -131 997 -99 971 b -164 865 -99 890 -131 865 z "},"̃":{"ha":0,"x_min":0,"x_max":0,"o":"m -429 865 l -346 865 b -314 913 -346 882 -343 913 b -144 863 -276 913 -212 863 b -42 993 -93 863 -42 897 l -125 993 b -157 946 -125 974 -128 946 b -326 996 -194 946 -258 996 b -429 865 -378 996 -429 958 z "},"̄":{"ha":0,"x_min":0,"x_max":0,"o":"m -400 972 l -400 875 l -42 875 l -42 972 z "},"̒":{"ha":0,"x_min":0,"x_max":0,"o":"m -94 936 b -25 1035 -94 988 -68 1025 l -25 1090 b -164 911 -133 1071 -164 971 b -83 793 -164 842 -137 793 b -11 869 -44 793 -11 824 b -94 936 -11 931 -51 950 z "},"̦":{"ha":0,"x_min":0,"x_max":0,"o":"m -111 -225 b -181 -310 -111 -276 -137 -300 l -181 -365 b -42 -200 -72 -346 -42 -260 b -122 -82 -42 -131 -68 -82 b -194 -158 -161 -82 -194 -112 b -111 -225 -194 -219 -154 -239 z "},"̧":{"ha":0,"x_min":0,"x_max":0,"o":"m -118 -10 l -187 -10 l -267 -112 l -250 -139 b -194 -129 -237 -133 -210 -129 b -125 -167 -146 -129 -125 -140 b -201 -218 -125 -196 -156 -218 b -306 -197 -244 -218 -272 -210 l -335 -232 b -186 -272 -301 -256 -243 -272 b -42 -168 -114 -272 -42 -235 b -176 -85 -42 -96 -122 -76 l -176 -82 z "},"̨":{"ha":0,"x_min":0,"x_max":0,"o":"m -132 -246 b -42 -232 -101 -246 -68 -240 l -42 -149 b -110 -162 -61 -157 -82 -162 b -161 -119 -137 -162 -161 -147 b -69 0 -161 -89 -129 -47 l -153 0 b -258 -143 -203 -21 -258 -78 b -132 -246 -258 -204 -215 -246 z "},"̵":{"ha":0,"x_min":0,"x_max":0,"o":"m -42 563 l -608 563 l -608 465 l -42 465 z "},"̶":{"ha":0,"x_min":0,"x_max":0,"o":"m -42 563 l -736 563 l -736 438 l -42 438 z "},"̷":{"ha":0,"x_min":0,"x_max":0,"o":"m -778 36 l -93 724 l -44 675 l -731 -12 z "},"̸":{"ha":0,"x_min":0,"x_max":0,"o":"m -778 36 l -93 724 l -44 675 l -731 -12 z "},"´":{"ha":676,"x_min":0,"x_max":0,"o":"m 351 1007 l 292 831 l 382 831 l 483 1007 z "},"˘":{"ha":694,"x_min":0,"x_max":0,"o":"m 347 825 b 524 1007 449 825 518 888 l 440 1007 b 347 908 436 939 407 908 b 254 1007 288 908 258 939 l 171 1007 b 347 825 175 883 249 825 z "},"ˇ":{"ha":694,"x_min":0,"x_max":0,"o":"m 157 1007 l 285 831 l 410 831 l 538 1007 l 426 1007 l 349 890 l 346 890 l 268 1007 z "},"¸":{"ha":694,"x_min":0,"x_max":0,"o":"m 385 -10 l 315 -10 l 236 -112 l 253 -139 b 308 -129 265 -133 293 -129 b 378 -167 357 -129 378 -140 b 301 -218 378 -196 347 -218 b 197 -197 258 -218 231 -210 l 168 -232 b 317 -272 201 -256 260 -272 b 461 -168 389 -272 461 -235 b 326 -85 461 -96 381 -76 l 326 -82 z "},"ˆ":{"ha":579,"x_min":0,"x_max":0,"o":"m 157 831 l 268 831 l 346 947 l 349 947 l 426 831 l 538 831 l 410 1007 l 285 1007 z "},"¨":{"ha":706,"x_min":0,"x_max":0,"o":"m 179 936 b 249 868 179 900 204 868 b 318 936 293 868 318 900 b 249 1006 318 974 293 1006 b 179 936 204 1006 179 974 z m 388 936 b 457 868 388 900 413 868 b 526 936 501 868 526 900 b 457 1006 526 974 501 1006 b 388 936 413 1006 388 974 z "},"˙":{"ha":721,"x_min":0,"x_max":0,"o":"m 290 936 b 360 868 290 900 315 868 b 429 936 404 868 429 900 b 360 1006 429 974 404 1006 b 290 936 315 1006 290 974 z "},"`":{"ha":926,"x_min":0,"x_max":0,"o":"m 325 1007 l 193 1007 l 294 831 l 385 831 z "},"˝":{"ha":746,"x_min":0,"x_max":0,"o":"m 250 1007 l 190 831 l 281 831 l 382 1007 z m 447 1007 l 388 831 l 478 831 l 579 1007 z "},"¯":{"ha":694,"x_min":0,"x_max":0,"o":"m 168 972 l 168 875 l 526 875 l 526 972 z "},"˛":{"ha":694,"x_min":0,"x_max":0,"o":"m 304 -246 b 394 -232 335 -246 368 -240 l 394 -149 b 326 -162 375 -157 354 -162 b 275 -119 299 -162 275 -147 b 367 0 275 -89 307 -47 l 283 0 b 178 -143 233 -21 178 -78 b 304 -246 178 -204 221 -246 z "},"˚":{"ha":708,"x_min":0,"x_max":0,"o":"m 353 810 b 475 931 419 810 475 858 b 353 1053 475 1001 419 1053 b 232 931 288 1053 232 1001 b 353 810 232 858 288 810 z m 353 865 b 289 931 319 865 289 890 b 353 997 289 971 319 997 b 418 931 386 997 418 971 b 353 865 418 890 386 865 z "},"˜":{"ha":694,"x_min":0,"x_max":0,"o":"m 153 865 l 236 865 b 268 913 236 882 239 913 b 438 863 306 913 369 863 b 540 993 489 863 540 897 l 457 993 b 425 946 457 974 454 946 b 256 996 388 946 324 996 b 153 865 204 996 153 958 z "}}}
